<svg xmlns="http://www.w3.org/2000/svg" xmlns:xlink="http://www.w3.org/1999/xlink" width="500" zoomAndPan="magnify" viewBox="0 0 375 374.999991" height="500" preserveAspectRatio="xMidYMid meet" version="1.0"><defs><g/></defs><path fill="#050a30" d="M 171.921875 88.757812 L 364.222656 88.757812 L 364.222656 286.242188 L 171.921875 286.242188 L 171.921875 88.757812 " fill-opacity="1" fill-rule="nonzero"/><g fill="#ffffff" fill-opacity="1"><g transform="translate(214.704188, 223.819868)"><g><path d="M 102.644531 -28.519531 C 98.480469 -34.394531 90.46875 -41.65625 82.566406 -47.746094 C 88.011719 -52.015625 94.207031 -57.679688 99.65625 -62.914062 L 88.972656 -69.640625 C 85.554688 -64.941406 80.003906 -59.066406 74.875 -54.472656 C 72.417969 -59.386719 69 -64.085938 64.515625 -68.144531 C 67.078125 -70.175781 69.535156 -72.523438 71.671875 -74.980469 L 100.082031 -74.980469 L 100.082031 -85.449219 L 33.21875 -85.449219 L 33.21875 -74.980469 L 55.863281 -74.980469 C 48.597656 -69.214844 38.988281 -64.300781 29.265625 -61.203125 C 31.828125 -59.066406 35.890625 -54.472656 37.703125 -52.125 C 44.007812 -54.6875 50.523438 -58 56.503906 -62.058594 C 57.679688 -60.777344 58.746094 -59.601562 59.816406 -58.210938 C 52.980469 -52.230469 41.550781 -46.25 32.152344 -42.9375 C 34.285156 -40.910156 37.703125 -36.957031 39.308594 -34.5 C 47.636719 -37.8125 57.359375 -43.898438 64.726562 -50.09375 C 65.582031 -48.386719 66.222656 -46.675781 66.863281 -45.074219 C 58.851562 -36.101562 44.007812 -28.089844 30.015625 -24.140625 C 32.363281 -21.894531 35.675781 -17.730469 37.277344 -15.058594 C 48.597656 -18.800781 60.136719 -25.3125 69.105469 -33.324219 C 69.320312 -27.664062 68.144531 -23.179688 66.222656 -21.148438 C 64.621094 -18.90625 63.019531 -18.476562 60.5625 -18.476562 C 58.320312 -18.476562 55.328125 -18.691406 52.445312 -19.011719 C 54.367188 -15.703125 55.113281 -11 55.222656 -7.902344 C 58 -7.691406 60.777344 -7.582031 63.019531 -7.691406 C 68.039062 -7.796875 71.777344 -8.867188 75.195312 -12.816406 C 79.363281 -16.664062 81.496094 -25.207031 80.644531 -34.925781 C 85.984375 -29.90625 90.898438 -24.671875 93.675781 -20.507812 Z M 30.867188 -70.070312 C 27.558594 -75.195312 20.402344 -82.136719 14.527344 -87.050781 L 4.914062 -80.109375 C 10.789062 -74.875 17.515625 -67.503906 20.402344 -62.378906 Z M 28.410156 -52.339844 L 4.273438 -52.339844 L 4.273438 -40.589844 L 16.234375 -40.589844 L 16.234375 -12.070312 C 11.855469 -9.933594 7.15625 -6.410156 2.671875 -2.136719 L 10.574219 8.757812 C 15.273438 2.671875 20.722656 -3.523438 24.351562 -3.523438 C 27.023438 -3.523438 30.65625 -0.535156 35.675781 1.816406 C 43.578125 5.875 52.980469 7.050781 65.796875 7.050781 C 76.265625 7.050781 93.566406 6.410156 100.617188 5.875 C 100.9375 2.457031 102.753906 -3.3125 104.140625 -6.621094 C 93.78125 -5.128906 77.226562 -4.164062 66.117188 -4.164062 C 54.6875 -4.164062 44.859375 -4.804688 37.597656 -8.546875 C 33.433594 -10.46875 30.867188 -12.390625 28.410156 -13.351562 Z M 28.410156 -52.339844 "/></g></g></g><path fill="#0019ff" d="M 11.0625 88.757812 L 171.109375 88.757812 L 171.109375 286.242188 L 11.0625 286.242188 L 11.0625 88.757812 " fill-opacity="1" fill-rule="nonzero"/><g fill="#ffffff" fill-opacity="1"><g transform="translate(53.458104, 223.819868)"><g><path d="M 29.695312 0 L 46.355469 0 L 75.089844 -74.769531 L 56.929688 -74.769531 L 38.132812 -24.460938 L 29.160156 -48.171875 L 19.226562 -74.769531 L 0.960938 -74.769531 Z M 29.695312 0 "/></g></g></g></svg>