<svg xmlns="http://www.w3.org/2000/svg" xmlns:xlink="http://www.w3.org/1999/xlink" width="500" zoomAndPan="magnify" viewBox="0 0 375 374.999991" height="500" preserveAspectRatio="xMidYMid meet" version="1.0"><defs><filter x="0%" y="0%" width="100%" height="100%" id="9e1c414a07"><feColorMatrix values="0 0 0 0 1 0 0 0 0 1 0 0 0 0 1 0 0 0 1 0" color-interpolation-filters="sRGB"/></filter><g/><clipPath id="d8a82aa3d6"><path d="M 53 125.1875 L 299 125.1875 L 299 171.027344 L 53 171.027344 Z M 53 125.1875 " clip-rule="nonzero"/></clipPath><clipPath id="02cc16f98e"><path d="M 276 125.1875 L 322 125.1875 L 322 171.027344 L 276 171.027344 Z M 276 125.1875 " clip-rule="nonzero"/></clipPath><mask id="c0531565ee"><g filter="url(#9e1c414a07)"><rect x="-37.5" width="450" fill="#000000" y="-37.499999" height="449.999989" fill-opacity="0.698"/></g></mask><clipPath id="f03ca619fc"><rect x="0" width="139" y="0" height="46"/></clipPath><mask id="64c4fbd928"><g filter="url(#9e1c414a07)"><rect x="-37.5" width="450" fill="#000000" y="-37.499999" height="449.999989" fill-opacity="0.298"/></g></mask><clipPath id="0810187236"><rect x="0" width="140" y="0" height="47"/></clipPath><mask id="69c17fc570"><g filter="url(#9e1c414a07)"><rect x="-37.5" width="450" fill="#000000" y="-37.499999" height="449.999989" fill-opacity="0.098"/></g></mask><clipPath id="25bfa28c82"><rect x="0" width="233" y="0" height="42"/></clipPath><mask id="2b0aeea8e1"><g filter="url(#9e1c414a07)"><rect x="-37.5" width="450" fill="#000000" y="-37.499999" height="449.999989" fill-opacity="0.698"/></g></mask><clipPath id="44d161bd92"><rect x="0" width="172" y="0" height="47"/></clipPath><mask id="dae213b23a"><g filter="url(#9e1c414a07)"><rect x="-37.5" width="450" fill="#000000" y="-37.499999" height="449.999989" fill-opacity="0.298"/></g></mask><clipPath id="6d74ce88e9"><rect x="0" width="126" y="0" height="47"/></clipPath><mask id="ba1fad9151"><g filter="url(#9e1c414a07)"><rect x="-37.5" width="450" fill="#000000" y="-37.499999" height="449.999989" fill-opacity="0.098"/></g></mask><clipPath id="820596ac27"><rect x="0" width="117" y="0" height="41"/></clipPath><clipPath id="a6cea14274"><path d="M 143 222 L 186 222 L 186 254 L 143 254 Z M 143 222 " clip-rule="nonzero"/></clipPath><clipPath id="287e50423d"><path d="M 135.53125 233.679688 L 158.8125 208.382812 L 191.554688 238.515625 L 168.269531 263.8125 Z M 135.53125 233.679688 " clip-rule="nonzero"/></clipPath><clipPath id="adbccafd72"><path d="M 135.53125 233.679688 L 158.8125 208.382812 L 191.554688 238.515625 L 168.269531 263.8125 Z M 135.53125 233.679688 " clip-rule="nonzero"/></clipPath><clipPath id="eb219b774e"><path d="M 142 220 L 189 220 L 189 257 L 142 257 Z M 142 220 " clip-rule="nonzero"/></clipPath><clipPath id="dc0baa8fe5"><path d="M 135.53125 233.679688 L 158.8125 208.382812 L 191.554688 238.515625 L 168.269531 263.8125 Z M 135.53125 233.679688 " clip-rule="nonzero"/></clipPath><clipPath id="e28babdb96"><path d="M 135.53125 233.679688 L 158.8125 208.382812 L 191.554688 238.515625 L 168.269531 263.8125 Z M 135.53125 233.679688 " clip-rule="nonzero"/></clipPath></defs><g clip-path="url(#d8a82aa3d6)"><path fill="#0019ff" d="M 288.789062 171.050781 L 63.40625 171.050781 C 57.800781 171.050781 53.257812 166.480469 53.257812 160.847656 L 53.257812 135.386719 C 53.257812 129.753906 57.800781 125.1875 63.40625 125.1875 L 288.789062 125.1875 C 294.394531 125.1875 298.9375 129.753906 298.9375 135.386719 L 298.9375 160.847656 C 298.9375 166.480469 294.394531 171.050781 288.789062 171.050781 Z M 288.789062 171.050781 " fill-opacity="1" fill-rule="nonzero"/></g><g clip-path="url(#02cc16f98e)"><path fill="#f4f4f4" d="M 311.59375 171.050781 L 276.132812 171.050781 L 276.132812 125.1875 L 311.59375 125.1875 C 317.199219 125.1875 321.742188 129.753906 321.742188 135.386719 L 321.742188 160.847656 C 321.742188 166.480469 317.199219 171.050781 311.59375 171.050781 Z M 311.59375 171.050781 " fill-opacity="1" fill-rule="nonzero"/></g><path fill="#0019ff" d="M 298.921875 157.707031 C 298.710938 157.707031 298.496094 157.625 298.332031 157.464844 L 286.824219 145.890625 C 286.496094 145.5625 286.496094 145.03125 286.824219 144.703125 C 287.148438 144.378906 287.675781 144.378906 288 144.703125 L 298.921875 155.6875 L 309.84375 144.703125 C 310.171875 144.378906 310.699219 144.378906 311.023438 144.703125 C 311.347656 145.03125 311.347656 145.5625 311.023438 145.890625 L 299.511719 157.464844 C 299.347656 157.625 299.136719 157.707031 298.921875 157.707031 Z M 298.921875 157.707031 " fill-opacity="1" fill-rule="nonzero"/><g fill="#ffffff" fill-opacity="1"><g transform="translate(61.109677, 158.682492)"><g><path d="M 2.609375 0 L 17.234375 0 L 17.234375 -4.191406 L 7.515625 -4.191406 L 7.515625 -8.945312 L 16.054688 -8.945312 L 16.054688 -13.074219 L 7.515625 -13.074219 L 7.515625 -17.578125 L 16.894531 -17.578125 L 16.894531 -21.738281 L 2.609375 -21.738281 Z M 2.609375 0 "/></g></g></g><g fill="#ffffff" fill-opacity="1"><g transform="translate(79.924629, 158.682492)"><g><path d="M 2.359375 0 L 7.082031 0 L 7.082031 -8.539062 C 7.082031 -11.117188 8.507812 -12.703125 10.683594 -12.703125 C 12.703125 -12.703125 13.914062 -11.273438 13.914062 -8.882812 L 13.914062 0 L 18.632812 0 L 18.632812 -9.378906 C 18.632812 -13.882812 16.054688 -16.738281 11.800781 -16.738281 C 9.628906 -16.738281 7.671875 -15.992188 6.367188 -14.472656 L 5.871094 -16.304688 L 2.359375 -16.304688 Z M 2.359375 0 "/></g></g></g><g fill="#ffffff" fill-opacity="1"><g transform="translate(100.602445, 158.682492)"><g><path d="M 10.308594 6.894531 C 15.527344 6.894531 18.851562 3.976562 18.851562 -0.902344 L 18.851562 -16.304688 L 15.339844 -16.304688 L 14.84375 -14.503906 C 13.414062 -15.929688 11.429688 -16.738281 9.097656 -16.738281 C 4.503906 -16.738281 1.210938 -13.355469 1.210938 -8.601562 C 1.210938 -3.820312 4.503906 -0.433594 9.097656 -0.433594 C 11.054688 -0.433594 12.792969 -1.023438 14.128906 -2.050781 L 14.128906 -0.902344 C 14.128906 1.738281 12.792969 3.074219 10.21875 3.074219 C 8.261719 3.074219 6.957031 2.265625 6.613281 0.839844 L 2.019531 0.839844 C 2.421875 4.597656 5.589844 6.894531 10.308594 6.894531 Z M 5.871094 -8.601562 C 5.871094 -11.085938 7.609375 -12.824219 10.09375 -12.824219 C 12.578125 -12.824219 14.347656 -11.085938 14.347656 -8.601562 C 14.347656 -6.085938 12.578125 -4.347656 10.09375 -4.347656 C 7.609375 -4.347656 5.871094 -6.085938 5.871094 -8.601562 Z M 5.871094 -8.601562 "/></g></g></g><g fill="#ffffff" fill-opacity="1"><g transform="translate(121.839127, 158.682492)"><g><path d="M 2.359375 0 L 7.082031 0 L 7.082031 -22.980469 L 2.359375 -22.980469 Z M 2.359375 0 "/></g></g></g><g fill="#ffffff" fill-opacity="1"><g transform="translate(131.277655, 158.682492)"><g><path d="M 2.359375 0 L 7.082031 0 L 7.082031 -16.304688 L 2.359375 -16.304688 Z M 1.675781 -21.582031 C 1.675781 -19.84375 2.917969 -18.632812 4.71875 -18.632812 C 6.523438 -18.632812 7.765625 -19.84375 7.765625 -21.582031 C 7.765625 -23.324219 6.523438 -24.535156 4.71875 -24.535156 C 2.917969 -24.535156 1.675781 -23.324219 1.675781 -21.582031 Z M 1.675781 -21.582031 "/></g></g></g><g fill="#ffffff" fill-opacity="1"><g transform="translate(140.716184, 158.682492)"><g><path d="M 8.632812 0.433594 C 13.042969 0.433594 15.714844 -1.492188 15.714844 -4.597656 C 15.714844 -7.265625 13.726562 -8.976562 9.6875 -9.78125 C 6.894531 -10.339844 6.023438 -10.808594 6.023438 -11.800781 C 6.023438 -12.761719 6.894531 -13.324219 8.292969 -13.324219 C 9.875 -13.324219 10.839844 -12.609375 10.929688 -11.367188 L 15.433594 -11.367188 C 15.21875 -14.8125 12.671875 -16.738281 8.324219 -16.738281 C 3.945312 -16.738281 1.460938 -14.96875 1.460938 -11.800781 C 1.460938 -9.097656 3.324219 -7.484375 7.484375 -6.738281 C 10 -6.304688 11.054688 -5.652344 11.054688 -4.628906 C 11.054688 -3.664062 10.1875 -3.074219 8.695312 -3.074219 C 6.957031 -3.074219 5.902344 -3.914062 5.871094 -5.25 L 1.242188 -5.25 C 1.242188 -1.832031 4.160156 0.433594 8.632812 0.433594 Z M 8.632812 0.433594 "/></g></g></g><g fill="#ffffff" fill-opacity="1"><g transform="translate(157.699314, 158.682492)"><g><path d="M 2.359375 0 L 7.082031 0 L 7.082031 -8.570312 C 7.082031 -11.148438 8.507812 -12.703125 10.683594 -12.703125 C 12.703125 -12.703125 13.914062 -11.335938 13.914062 -8.945312 L 13.914062 0 L 18.632812 0 L 18.632812 -9.410156 C 18.632812 -13.945312 16.085938 -16.738281 11.863281 -16.738281 C 10.03125 -16.738281 8.324219 -16.179688 7.082031 -15.0625 L 7.082031 -22.980469 L 2.359375 -22.980469 Z M 2.359375 0 "/></g></g></g><g fill="#000000" fill-opacity="1"><g transform="translate(60.766309, 200.034972)"><g><path d="M 2.609375 0 L 17.234375 0 L 17.234375 -4.191406 L 7.515625 -4.191406 L 7.515625 -8.941406 L 16.054688 -8.941406 L 16.054688 -13.074219 L 7.515625 -13.074219 L 7.515625 -17.574219 L 16.890625 -17.574219 L 16.890625 -21.734375 L 2.609375 -21.734375 Z M 2.609375 0 "/></g></g></g><g fill="#000000" fill-opacity="1"><g transform="translate(79.577754, 200.034972)"><g><path d="M 8.632812 0.433594 C 13.042969 0.433594 15.710938 -1.492188 15.710938 -4.59375 C 15.710938 -7.265625 13.722656 -8.972656 9.6875 -9.78125 C 6.894531 -10.339844 6.023438 -10.804688 6.023438 -11.800781 C 6.023438 -12.761719 6.894531 -13.320312 8.289062 -13.320312 C 9.875 -13.320312 10.835938 -12.605469 10.929688 -11.363281 L 15.433594 -11.363281 C 15.214844 -14.8125 12.667969 -16.738281 8.320312 -16.738281 C 3.945312 -16.738281 1.460938 -14.964844 1.460938 -11.800781 C 1.460938 -9.097656 3.324219 -7.484375 7.484375 -6.738281 C 10 -6.304688 11.054688 -5.652344 11.054688 -4.625 C 11.054688 -3.664062 10.183594 -3.074219 8.695312 -3.074219 C 6.957031 -3.074219 5.898438 -3.914062 5.867188 -5.246094 L 1.242188 -5.246094 C 1.242188 -1.832031 4.160156 0.433594 8.632812 0.433594 Z M 8.632812 0.433594 "/></g></g></g><g fill="#000000" fill-opacity="1"><g transform="translate(96.557725, 200.034972)"><g><path d="M 12.234375 0.433594 C 17.109375 0.433594 20.554688 -3.105469 20.554688 -8.167969 C 20.554688 -13.164062 17.109375 -16.738281 12.234375 -16.738281 C 9.875 -16.738281 7.855469 -15.898438 6.394531 -14.4375 L 5.867188 -16.300781 L 2.359375 -16.300781 L 2.359375 6.210938 L 7.078125 6.210938 L 7.078125 -1.273438 C 8.445312 -0.1875 10.214844 0.433594 12.234375 0.433594 Z M 6.894531 -8.167969 C 6.894531 -10.804688 8.757812 -12.699219 11.394531 -12.699219 C 14.066406 -12.699219 15.898438 -10.804688 15.898438 -8.167969 C 15.898438 -5.496094 14.066406 -3.632812 11.394531 -3.632812 C 8.757812 -3.632812 6.894531 -5.496094 6.894531 -8.167969 Z M 6.894531 -8.167969 "/></g></g></g><g fill="#000000" fill-opacity="1"><g transform="translate(118.318162, 200.034972)"><g><path d="M 7.792969 0.308594 C 10.214844 0.308594 12.203125 -0.464844 13.601562 -1.894531 L 14.128906 0 L 17.636719 0 L 17.636719 -9.8125 C 17.636719 -14.128906 14.71875 -16.738281 9.84375 -16.738281 C 5.683594 -16.738281 2.949219 -14.75 2.359375 -11.210938 L 6.894531 -11.210938 C 7.171875 -12.359375 8.351562 -13.132812 9.875 -13.132812 C 11.738281 -13.132812 13.011719 -12.078125 13.011719 -10.464844 L 13.011719 -9.71875 L 7.109375 -9.71875 C 3.726562 -9.71875 1.550781 -7.761719 1.550781 -4.75 C 1.550781 -1.613281 3.945312 0.308594 7.792969 0.308594 Z M 6.210938 -4.9375 C 6.210938 -6.054688 7.140625 -6.769531 8.570312 -6.769531 L 13.042969 -6.769531 C 12.949219 -4.566406 11.242188 -3.074219 8.878906 -3.074219 C 7.265625 -3.074219 6.210938 -3.820312 6.210938 -4.9375 Z M 6.210938 -4.9375 "/></g></g></g><g fill="#000000" fill-opacity="1"><g transform="translate(137.998787, 200.034972)"><g><path d="M 2.359375 0 L 7.078125 0 L 7.078125 -8.539062 C 7.078125 -11.117188 8.507812 -12.699219 10.679688 -12.699219 C 12.699219 -12.699219 13.910156 -11.269531 13.910156 -8.878906 L 13.910156 0 L 18.628906 0 L 18.628906 -9.378906 C 18.628906 -13.878906 16.054688 -16.738281 11.800781 -16.738281 C 9.625 -16.738281 7.667969 -15.992188 6.367188 -14.46875 L 5.867188 -16.300781 L 2.359375 -16.300781 Z M 5.464844 -18.753906 L 8.539062 -18.753906 L 8.539062 -19.1875 C 8.539062 -19.71875 8.789062 -20.058594 9.222656 -20.058594 C 10.214844 -20.058594 10.835938 -18.660156 12.855469 -18.660156 C 14.71875 -18.660156 15.835938 -19.871094 15.835938 -21.984375 L 15.835938 -22.792969 L 12.730469 -22.792969 L 12.730469 -22.386719 C 12.730469 -21.828125 12.480469 -21.519531 12.046875 -21.519531 C 11.054688 -21.519531 10.433594 -22.882812 8.414062 -22.882812 C 6.550781 -22.882812 5.464844 -21.671875 5.464844 -19.59375 Z M 5.464844 -18.753906 "/></g></g></g><g fill="#000000" fill-opacity="1"><g transform="translate(158.672751, 200.034972)"><g><path d="M 10.371094 0.433594 C 15.773438 0.433594 19.5 -3.074219 19.5 -8.167969 C 19.5 -13.226562 15.773438 -16.738281 10.371094 -16.738281 C 4.9375 -16.738281 1.210938 -13.226562 1.210938 -8.167969 C 1.210938 -3.074219 4.9375 0.433594 10.371094 0.433594 Z M 5.867188 -8.167969 C 5.867188 -10.835938 7.730469 -12.699219 10.371094 -12.699219 C 13.011719 -12.699219 14.84375 -10.835938 14.84375 -8.167969 C 14.84375 -5.496094 13.011719 -3.632812 10.371094 -3.632812 C 7.730469 -3.632812 5.867188 -5.496094 5.867188 -8.167969 Z M 5.867188 -8.167969 "/></g></g></g><g fill="#000000" fill-opacity="1"><g transform="translate(179.37776, 200.034972)"><g><path d="M 2.359375 0 L 7.078125 0 L 7.078125 -22.976562 L 2.359375 -22.976562 Z M 2.359375 0 "/></g></g></g><g fill="#000000" fill-opacity="1"><g transform="translate(60.766309, 241.68751)"><g><path d="M 8.632812 -3.414062 L 8.632812 -10.371094 L 22.417969 -10.371094 L 22.417969 -3.414062 Z M 22.417969 -20.710938 L 22.417969 -14.035156 L 8.632812 -14.035156 L 8.632812 -20.710938 Z M 4.8125 -24.4375 L 4.8125 2.328125 L 8.632812 2.328125 L 8.632812 0.308594 L 22.417969 0.308594 L 22.417969 2.265625 L 26.394531 2.265625 L 26.394531 -24.4375 Z M 4.8125 -24.4375 "/></g></g></g><g fill="#000000" fill-opacity="1"><g transform="translate(91.808294, 241.68751)"><g><path d="M 17.480469 -6.304688 L 17.480469 -16.519531 L 17.605469 -16.519531 C 18.972656 -12.730469 20.804688 -9.222656 23.007812 -6.304688 Z M 7.855469 -6.304688 C 10.089844 -9.222656 11.984375 -12.730469 13.351562 -16.519531 L 13.570312 -16.519531 L 13.570312 -6.304688 Z M 29.1875 -16.519531 L 29.1875 -20.277344 L 17.480469 -20.277344 L 17.480469 -26.269531 L 13.570312 -26.269531 L 13.570312 -20.277344 L 1.925781 -20.277344 L 1.925781 -16.519531 L 9.53125 -16.519531 C 7.609375 -11.832031 4.441406 -7.390625 0.839844 -4.90625 C 1.707031 -4.222656 2.886719 -2.824219 3.539062 -1.894531 C 4.78125 -2.886719 5.960938 -4.035156 7.046875 -5.308594 L 7.046875 -2.546875 L 13.570312 -2.546875 L 13.570312 2.703125 L 17.480469 2.703125 L 17.480469 -2.546875 L 23.878906 -2.546875 L 23.878906 -5.246094 C 24.902344 -4.035156 25.988281 -2.949219 27.167969 -2.050781 C 27.820312 -3.074219 29.125 -4.535156 30.089844 -5.277344 C 26.457031 -7.730469 23.320312 -11.984375 21.363281 -16.519531 Z M 29.1875 -16.519531 "/></g></g></g><g fill="#000000" fill-opacity="1"><g transform="translate(122.85028, 241.68751)"><g><path d="M 13.042969 -21.175781 L 7.515625 -21.175781 L 9.59375 -22.292969 C 9.097656 -23.441406 8.136719 -25.152344 7.265625 -26.425781 L 4.410156 -25.089844 C 5.125 -23.910156 5.960938 -22.355469 6.425781 -21.175781 L 1.054688 -21.175781 L 1.054688 -18.257812 L 13.042969 -18.257812 Z M 11.921875 -16.859375 L 2.421875 -16.859375 L 2.421875 -14.066406 L 11.921875 -14.066406 Z M 2.421875 -9.90625 L 11.921875 -9.90625 L 11.921875 -12.667969 L 2.421875 -12.667969 Z M 8.941406 -5.464844 L 8.941406 -1.988281 L 5.464844 -1.988281 L 5.464844 -5.464844 Z M 12.140625 -8.414062 L 2.359375 -8.414062 L 2.359375 2.296875 L 5.464844 2.296875 L 5.464844 0.992188 L 12.140625 0.992188 Z M 24.746094 -5.746094 L 24.746094 -1.550781 L 17.511719 -1.550781 L 17.511719 -5.746094 Z M 14.066406 2.734375 L 17.511719 2.734375 L 17.511719 1.613281 L 24.746094 1.613281 L 24.746094 2.640625 L 28.347656 2.640625 L 28.347656 -8.910156 L 14.066406 -8.910156 Z M 23.972656 -16.828125 L 23.972656 -13.414062 L 19.75 -13.414062 C 19.964844 -14.4375 20.214844 -15.585938 20.429688 -16.828125 Z M 27.386719 -13.414062 L 27.386719 -19.808594 L 20.960938 -19.808594 C 21.113281 -20.585938 21.238281 -21.363281 21.363281 -22.109375 L 29.21875 -22.109375 L 29.21875 -25.152344 L 13.289062 -25.152344 L 13.289062 -22.109375 L 17.730469 -22.109375 C 17.605469 -21.363281 17.511719 -20.585938 17.386719 -19.808594 L 14.066406 -19.808594 L 14.066406 -16.828125 L 16.859375 -16.828125 C 16.644531 -15.585938 16.394531 -14.4375 16.207031 -13.414062 L 12.511719 -13.414062 L 12.511719 -10.371094 L 30.027344 -10.371094 L 30.027344 -13.414062 Z M 27.386719 -13.414062 "/></g></g></g><g fill="#000000" fill-opacity="1"><g transform="translate(153.89208, 241.68751)"><g/></g></g><g mask="url(#c0531565ee)"><g transform="matrix(1, 0, 0, 1, 60, 250)"><g clip-path="url(#f03ca619fc)"><g fill="#000000" fill-opacity="1"><g transform="translate(0.766308, 33.340089)"><g><path d="M 2.609375 0 L 11.210938 0 C 18.070312 0 22.667969 -4.378906 22.667969 -10.867188 C 22.667969 -17.328125 18.070312 -21.734375 11.210938 -21.734375 L 2.609375 -21.734375 Z M 7.546875 -4.535156 L 7.546875 -17.203125 L 11.054688 -17.203125 C 14.964844 -17.203125 17.605469 -14.6875 17.605469 -10.867188 C 17.605469 -7.046875 14.964844 -4.535156 11.117188 -4.535156 Z M 7.546875 -4.535156 "/></g></g></g><g fill="#000000" fill-opacity="1"><g transform="translate(24.730725, 33.340089)"><g><path d="M 10.058594 0.433594 C 14.066406 0.433594 17.234375 -1.613281 18.660156 -5.0625 L 13.878906 -5.0625 C 13.101562 -3.972656 11.707031 -3.351562 10.152344 -3.351562 C 8.011719 -3.351562 6.335938 -4.566406 5.898438 -6.800781 L 18.972656 -6.800781 C 19.25 -12.761719 15.710938 -16.738281 10.121094 -16.738281 C 4.84375 -16.738281 1.210938 -13.226562 1.210938 -8.167969 C 1.210938 -3.074219 4.8125 0.433594 10.058594 0.433594 Z M 5.929688 -9.78125 C 6.457031 -11.769531 8.074219 -12.980469 10.152344 -12.980469 C 12.328125 -12.980469 13.878906 -11.769531 14.40625 -9.78125 Z M 5.929688 -9.78125 "/></g></g></g><g fill="#000000" fill-opacity="1"><g transform="translate(44.87698, 33.340089)"><g><path d="M 8.847656 0.433594 C 10.992188 0.433594 12.917969 -0.308594 14.222656 -1.832031 L 14.71875 0 L 18.226562 0 L 18.226562 -16.300781 L 13.507812 -16.300781 L 13.507812 -7.792969 C 13.507812 -5.214844 12.109375 -3.632812 9.96875 -3.632812 C 7.980469 -3.632812 6.769531 -5.03125 6.769531 -7.421875 L 6.769531 -16.300781 L 2.050781 -16.300781 L 2.050781 -6.957031 C 2.050781 -2.421875 4.625 0.433594 8.847656 0.433594 Z M 8.847656 0.433594 "/></g></g></g><g fill="#000000" fill-opacity="1"><g transform="translate(65.457819, 33.340089)"><g><path d="M 10.214844 0 L 13.195312 0 L 13.195312 -4.097656 L 11.242188 -4.097656 C 9.378906 -4.097656 8.507812 -5 8.507812 -6.894531 L 8.507812 -12.453125 L 12.980469 -12.453125 L 12.980469 -16.300781 L 8.507812 -16.300781 L 8.507812 -20.523438 L 4.84375 -20.523438 L 4.566406 -18.414062 C 4.316406 -16.738281 3.851562 -16.300781 2.082031 -16.300781 L 0.621094 -16.300781 L 0.621094 -12.453125 L 3.789062 -12.453125 L 3.789062 -6.179688 C 3.789062 -2.203125 6.085938 0 10.214844 0 Z M 10.214844 0 "/></g></g></g><g fill="#000000" fill-opacity="1"><g transform="translate(79.954429, 33.340089)"><g><path d="M 8.632812 0.433594 C 13.042969 0.433594 15.710938 -1.492188 15.710938 -4.59375 C 15.710938 -7.265625 13.722656 -8.972656 9.6875 -9.78125 C 6.894531 -10.339844 6.023438 -10.804688 6.023438 -11.800781 C 6.023438 -12.761719 6.894531 -13.320312 8.289062 -13.320312 C 9.875 -13.320312 10.835938 -12.605469 10.929688 -11.363281 L 15.433594 -11.363281 C 15.214844 -14.8125 12.667969 -16.738281 8.320312 -16.738281 C 3.945312 -16.738281 1.460938 -14.964844 1.460938 -11.800781 C 1.460938 -9.097656 3.324219 -7.484375 7.484375 -6.738281 C 10 -6.304688 11.054688 -5.652344 11.054688 -4.625 C 11.054688 -3.664062 10.183594 -3.074219 8.695312 -3.074219 C 6.957031 -3.074219 5.898438 -3.914062 5.867188 -5.246094 L 1.242188 -5.246094 C 1.242188 -1.832031 4.160156 0.433594 8.632812 0.433594 Z M 8.632812 0.433594 "/></g></g></g><g fill="#000000" fill-opacity="1"><g transform="translate(96.9344, 33.340089)"><g><path d="M 10.121094 0.433594 C 14.71875 0.433594 18.164062 -2.265625 19.035156 -6.550781 L 14.4375 -6.550781 C 13.785156 -4.78125 12.171875 -3.632812 10.183594 -3.632812 C 7.636719 -3.632812 5.867188 -5.496094 5.867188 -8.167969 C 5.867188 -10.835938 7.636719 -12.699219 10.183594 -12.699219 C 12.046875 -12.699219 13.570312 -11.707031 14.34375 -10.058594 L 18.878906 -10.058594 C 18.132812 -14.097656 14.65625 -16.738281 10.121094 -16.738281 C 4.90625 -16.738281 1.210938 -13.164062 1.210938 -8.167969 C 1.210938 -3.136719 4.875 0.433594 10.121094 0.433594 Z M 10.121094 0.433594 "/></g></g></g><g fill="#000000" fill-opacity="1"><g transform="translate(117.11169, 33.340089)"><g><path d="M 2.359375 0 L 7.078125 0 L 7.078125 -8.570312 C 7.078125 -11.148438 8.507812 -12.699219 10.679688 -12.699219 C 12.699219 -12.699219 13.910156 -11.332031 13.910156 -8.941406 L 13.910156 0 L 18.628906 0 L 18.628906 -9.410156 C 18.628906 -13.941406 16.085938 -16.738281 11.863281 -16.738281 C 10.03125 -16.738281 8.320312 -16.175781 7.078125 -15.058594 L 7.078125 -22.976562 L 2.359375 -22.976562 Z M 2.359375 0 "/></g></g></g></g></g></g><g mask="url(#64c4fbd928)"><g transform="matrix(1, 0, 0, 1, 60, 291)"><g clip-path="url(#0810187236)"><g fill="#000000" fill-opacity="1"><g transform="translate(0.766308, 33.992655)"><g><path d="M 2.609375 0 L 7.546875 0 L 7.546875 -7.484375 L 15.433594 -7.484375 L 15.433594 -11.832031 L 7.546875 -11.832031 L 7.546875 -17.265625 L 16.238281 -17.265625 L 16.238281 -21.734375 L 2.609375 -21.734375 Z M 2.609375 0 "/></g></g></g><g fill="#000000" fill-opacity="1"><g transform="translate(18.357082, 33.992655)"><g><path d="M 2.359375 0 L 7.078125 0 L 7.078125 -7.203125 C 7.078125 -10.710938 8.726562 -12.015625 11.425781 -12.015625 L 13.226562 -12.015625 L 13.226562 -16.300781 L 11.457031 -16.300781 C 9.066406 -16.300781 7.546875 -15.648438 6.488281 -14.128906 L 5.867188 -16.300781 L 2.359375 -16.300781 Z M 2.359375 0 "/></g></g></g><g fill="#000000" fill-opacity="1"><g transform="translate(32.636399, 33.992655)"><g><path d="M 7.792969 0.308594 C 10.214844 0.308594 12.203125 -0.464844 13.601562 -1.894531 L 14.128906 0 L 17.636719 0 L 17.636719 -9.8125 C 17.636719 -14.128906 14.71875 -16.738281 9.84375 -16.738281 C 5.683594 -16.738281 2.949219 -14.75 2.359375 -11.210938 L 6.894531 -11.210938 C 7.171875 -12.359375 8.351562 -13.132812 9.875 -13.132812 C 11.738281 -13.132812 13.011719 -12.078125 13.011719 -10.464844 L 13.011719 -9.71875 L 7.109375 -9.71875 C 3.726562 -9.71875 1.550781 -7.761719 1.550781 -4.75 C 1.550781 -1.613281 3.945312 0.308594 7.792969 0.308594 Z M 6.210938 -4.9375 C 6.210938 -6.054688 7.140625 -6.769531 8.570312 -6.769531 L 13.042969 -6.769531 C 12.949219 -4.566406 11.242188 -3.074219 8.878906 -3.074219 C 7.265625 -3.074219 6.210938 -3.820312 6.210938 -4.9375 Z M 6.210938 -4.9375 "/></g></g></g><g fill="#000000" fill-opacity="1"><g transform="translate(52.317025, 33.992655)"><g><path d="M 2.359375 0 L 7.078125 0 L 7.078125 -8.539062 C 7.078125 -11.117188 8.507812 -12.699219 10.679688 -12.699219 C 12.699219 -12.699219 13.910156 -11.269531 13.910156 -8.878906 L 13.910156 0 L 18.628906 0 L 18.628906 -9.378906 C 18.628906 -13.878906 16.054688 -16.738281 11.800781 -16.738281 C 9.625 -16.738281 7.667969 -15.992188 6.367188 -14.46875 L 5.867188 -16.300781 L 2.359375 -16.300781 Z M 2.359375 0 "/></g></g></g><g fill="#000000" fill-opacity="1"><g transform="translate(72.990989, 33.992655)"><g><path d="M 7.761719 8.136719 L 10.277344 8.136719 C 12.730469 8.136719 14.097656 6.738281 14.097656 4.75 C 14.097656 3.011719 13.074219 1.738281 11.179688 1.429688 L 11.582031 0.339844 C 15.433594 -0.15625 18.257812 -2.734375 19.035156 -6.550781 L 14.4375 -6.550781 C 13.785156 -4.78125 12.171875 -3.632812 10.183594 -3.632812 C 7.636719 -3.632812 5.867188 -5.496094 5.867188 -8.167969 C 5.867188 -10.835938 7.636719 -12.699219 10.183594 -12.699219 C 12.046875 -12.699219 13.570312 -11.707031 14.34375 -10.058594 L 18.878906 -10.058594 C 18.132812 -14.097656 14.65625 -16.738281 10.121094 -16.738281 C 4.90625 -16.738281 1.210938 -13.164062 1.210938 -8.167969 C 1.210938 -3.507812 4.347656 -0.125 8.941406 0.371094 L 8.136719 2.824219 L 8.726562 3.570312 L 9.875 3.570312 C 10.621094 3.570312 11.054688 3.914062 11.054688 4.503906 C 11.054688 5.09375 10.621094 5.433594 9.875 5.433594 L 7.761719 5.433594 Z M 7.761719 8.136719 "/></g></g></g><g fill="#000000" fill-opacity="1"><g transform="translate(93.168279, 33.992655)"><g><path d="M 7.792969 0.308594 C 10.214844 0.308594 12.203125 -0.464844 13.601562 -1.894531 L 14.128906 0 L 17.636719 0 L 17.636719 -9.8125 C 17.636719 -14.128906 14.71875 -16.738281 9.84375 -16.738281 C 5.683594 -16.738281 2.949219 -14.75 2.359375 -11.210938 L 6.894531 -11.210938 C 7.171875 -12.359375 8.351562 -13.132812 9.875 -13.132812 C 11.738281 -13.132812 13.011719 -12.078125 13.011719 -10.464844 L 13.011719 -9.71875 L 7.109375 -9.71875 C 3.726562 -9.71875 1.550781 -7.761719 1.550781 -4.75 C 1.550781 -1.613281 3.945312 0.308594 7.792969 0.308594 Z M 6.210938 -4.9375 C 6.210938 -6.054688 7.140625 -6.769531 8.570312 -6.769531 L 13.042969 -6.769531 C 12.949219 -4.566406 11.242188 -3.074219 8.878906 -3.074219 C 7.265625 -3.074219 6.210938 -3.820312 6.210938 -4.9375 Z M 6.210938 -4.9375 "/></g></g></g><g fill="#000000" fill-opacity="1"><g transform="translate(112.848904, 33.992655)"><g><path d="M 2.359375 0 L 7.078125 0 L 7.078125 -16.300781 L 2.359375 -16.300781 Z M 1.675781 -21.582031 C 1.675781 -19.839844 2.917969 -18.628906 4.71875 -18.628906 C 6.519531 -18.628906 7.761719 -19.839844 7.761719 -21.582031 C 7.761719 -23.320312 6.519531 -24.53125 4.71875 -24.53125 C 2.917969 -24.53125 1.675781 -23.320312 1.675781 -21.582031 Z M 1.675781 -21.582031 "/></g></g></g><g fill="#000000" fill-opacity="1"><g transform="translate(122.285666, 33.992655)"><g><path d="M 8.632812 0.433594 C 13.042969 0.433594 15.710938 -1.492188 15.710938 -4.59375 C 15.710938 -7.265625 13.722656 -8.972656 9.6875 -9.78125 C 6.894531 -10.339844 6.023438 -10.804688 6.023438 -11.800781 C 6.023438 -12.761719 6.894531 -13.320312 8.289062 -13.320312 C 9.875 -13.320312 10.835938 -12.605469 10.929688 -11.363281 L 15.433594 -11.363281 C 15.214844 -14.8125 12.667969 -16.738281 8.320312 -16.738281 C 3.945312 -16.738281 1.460938 -14.964844 1.460938 -11.800781 C 1.460938 -9.097656 3.324219 -7.484375 7.484375 -6.738281 C 10 -6.304688 11.054688 -5.652344 11.054688 -4.625 C 11.054688 -3.664062 10.183594 -3.074219 8.695312 -3.074219 C 6.957031 -3.074219 5.898438 -3.914062 5.867188 -5.246094 L 1.242188 -5.246094 C 1.242188 -1.832031 4.160156 0.433594 8.632812 0.433594 Z M 8.632812 0.433594 "/></g></g></g></g></g></g><g mask="url(#69c17fc570)"><g transform="matrix(1, 0, 0, 1, 60, 333)"><g clip-path="url(#25bfa28c82)"><g fill="#000000" fill-opacity="1"><g transform="translate(0.766308, 33.64522)"><g><path d="M 2.609375 0 L 7.546875 0 L 7.546875 -6.054688 L 11.117188 -6.054688 C 16.363281 -6.054688 19.75 -9.128906 19.75 -13.878906 C 19.75 -18.660156 16.363281 -21.734375 11.117188 -21.734375 L 2.609375 -21.734375 Z M 7.515625 -10.308594 L 7.515625 -17.417969 L 10.710938 -17.417969 C 13.289062 -17.417969 14.71875 -16.117188 14.71875 -13.847656 C 14.71875 -11.582031 13.289062 -10.308594 10.710938 -10.308594 Z M 7.515625 -10.308594 "/></g></g></g><g fill="#000000" fill-opacity="1"><g transform="translate(21.409227, 33.64522)"><g><path d="M 2.421875 6.210938 L 4.625 6.210938 C 8.414062 6.210938 10 5.277344 11.332031 1.925781 L 18.597656 -16.300781 L 13.539062 -16.300781 L 11.363281 -10.371094 L 9.875 -6.210938 L 5.496094 -16.300781 L 0.28125 -16.300781 L 7.609375 -0.527344 L 7.421875 0.03125 C 6.863281 1.644531 6.210938 2.140625 4.285156 2.140625 L 2.421875 2.140625 Z M 2.421875 6.210938 "/></g></g></g><g fill="#000000" fill-opacity="1"><g transform="translate(40.251717, 33.64522)"><g><path d="M 10.121094 0.433594 C 14.71875 0.433594 18.164062 -2.265625 19.035156 -6.550781 L 14.4375 -6.550781 C 13.785156 -4.78125 12.171875 -3.632812 10.183594 -3.632812 C 7.636719 -3.632812 5.867188 -5.496094 5.867188 -8.167969 C 5.867188 -10.835938 7.636719 -12.699219 10.183594 -12.699219 C 12.046875 -12.699219 13.570312 -11.707031 14.34375 -10.058594 L 18.878906 -10.058594 C 18.132812 -14.097656 14.65625 -16.738281 10.121094 -16.738281 C 4.90625 -16.738281 1.210938 -13.164062 1.210938 -8.167969 C 1.210938 -3.136719 4.875 0.433594 10.121094 0.433594 Z M 10.121094 0.433594 "/></g></g></g><g fill="#000000" fill-opacity="1"><g transform="translate(60.429007, 33.64522)"><g><path d="M 10.121094 0.433594 C 14.71875 0.433594 18.164062 -2.265625 19.035156 -6.550781 L 14.4375 -6.550781 C 13.785156 -4.78125 12.171875 -3.632812 10.183594 -3.632812 C 7.636719 -3.632812 5.867188 -5.496094 5.867188 -8.167969 C 5.867188 -10.835938 7.636719 -12.699219 10.183594 -12.699219 C 12.046875 -12.699219 13.570312 -11.707031 14.34375 -10.058594 L 18.878906 -10.058594 C 18.132812 -14.097656 14.65625 -16.738281 10.121094 -16.738281 C 4.90625 -16.738281 1.210938 -13.164062 1.210938 -8.167969 C 1.210938 -3.136719 4.875 0.433594 10.121094 0.433594 Z M 10.121094 0.433594 "/></g></g></g><g fill="#000000" fill-opacity="1"><g transform="translate(80.606296, 33.64522)"><g><path d="M 2.359375 0 L 7.078125 0 L 7.078125 -6.210938 L 9.625 -6.210938 L 13.226562 0 L 18.722656 0 L 14.003906 -7.792969 C 14.90625 -8.570312 15.585938 -9.65625 16.117188 -11.117188 L 18.007812 -16.300781 L 12.917969 -16.300781 L 11.769531 -12.761719 C 11.148438 -10.929688 10.277344 -10.433594 8.289062 -10.433594 L 7.078125 -10.433594 L 7.078125 -16.300781 L 2.359375 -16.300781 Z M 2.359375 0 "/></g></g></g><g fill="#000000" fill-opacity="1"><g transform="translate(100.131709, 33.64522)"><g><path d="M 2.359375 0 L 6.488281 0 L 14.035156 -9.222656 L 14.035156 0 L 18.722656 0 L 18.722656 -16.300781 L 14.59375 -16.300781 L 7.046875 -7.015625 L 7.046875 -16.300781 L 2.359375 -16.300781 Z M 2.359375 0 "/></g></g></g><g fill="#000000" fill-opacity="1"><g transform="translate(121.209223, 33.64522)"><g><path d="M 2.359375 0 L 6.488281 0 L 14.035156 -9.222656 L 14.035156 0 L 18.722656 0 L 18.722656 -16.300781 L 14.59375 -16.300781 L 7.046875 -7.015625 L 7.046875 -16.300781 L 2.359375 -16.300781 Z M 5.683594 -22.730469 C 5.683594 -19.996094 7.546875 -18.414062 10.558594 -18.414062 C 13.539062 -18.414062 15.402344 -19.996094 15.402344 -22.730469 L 15.402344 -23.566406 L 12.390625 -23.566406 L 12.390625 -22.976562 C 12.390625 -21.765625 11.707031 -21.144531 10.558594 -21.144531 C 9.410156 -21.144531 8.695312 -21.765625 8.695312 -22.976562 L 8.695312 -23.566406 L 5.683594 -23.566406 Z M 5.683594 -22.730469 "/></g></g></g><g fill="#000000" fill-opacity="1"><g transform="translate(142.286738, 33.64522)"><g/></g></g><g fill="#000000" fill-opacity="1"><g transform="translate(149.58161, 33.64522)"><g><path d="M 11.800781 0 L 16.457031 0 L 16.457031 -16.300781 L 8.011719 -16.300781 C 4.128906 -16.300781 1.644531 -14.097656 1.644531 -10.589844 C 1.644531 -8.320312 2.671875 -6.519531 4.410156 -5.496094 L 1.273438 0 L 6.644531 0 L 9.128906 -4.625 L 11.800781 -4.625 Z M 6.273438 -10.464844 C 6.273438 -11.738281 7.140625 -12.453125 8.695312 -12.453125 L 11.921875 -12.453125 L 11.921875 -8.445312 L 8.695312 -8.445312 C 7.140625 -8.445312 6.273438 -9.191406 6.273438 -10.464844 Z M 6.273438 -10.464844 "/></g></g></g><g fill="#000000" fill-opacity="1"><g transform="translate(168.393055, 33.64522)"><g><path d="M 8.507812 0.433594 C 13.074219 0.433594 15.804688 -1.429688 15.804688 -4.472656 C 15.804688 -6.210938 14.875 -7.636719 13.289062 -8.414062 C 14.5625 -9.253906 15.277344 -10.464844 15.277344 -11.984375 C 15.277344 -14.90625 12.605469 -16.738281 8.445312 -16.738281 C 4.128906 -16.738281 1.492188 -14.75 1.367188 -11.394531 L 5.714844 -11.394531 C 5.867188 -12.574219 6.738281 -13.226562 8.382812 -13.226562 C 9.875 -13.226562 10.742188 -12.605469 10.742188 -11.550781 C 10.742188 -10.527344 9.9375 -10.03125 8.507812 -10.03125 L 6.117188 -10.03125 L 6.117188 -6.519531 L 8.539062 -6.519531 C 10.183594 -6.519531 11.148438 -6.023438 11.148438 -4.9375 C 11.148438 -3.820312 10.121094 -3.136719 8.382812 -3.136719 C 6.550781 -3.136719 5.714844 -3.851562 5.527344 -5.183594 L 1.117188 -5.183594 C 1.242188 -1.675781 3.914062 0.433594 8.507812 0.433594 Z M 8.507812 0.433594 "/></g></g></g><g fill="#000000" fill-opacity="1"><g transform="translate(185.279903, 33.64522)"><g><path d="M 2.359375 0 L 10.652344 0 C 14.6875 0 17.203125 -2.265625 17.203125 -5.898438 C 17.203125 -9.53125 14.6875 -11.800781 10.652344 -11.800781 L 7.078125 -11.800781 L 7.078125 -16.300781 L 2.359375 -16.300781 Z M 6.988281 -3.789062 L 6.988281 -8.042969 L 10.03125 -8.042969 C 11.644531 -8.042969 12.542969 -7.265625 12.542969 -5.898438 C 12.542969 -4.566406 11.644531 -3.789062 10.03125 -3.789062 Z M 20.371094 0 L 25.089844 0 L 25.089844 -16.300781 L 20.371094 -16.300781 Z M 20.371094 0 "/></g></g></g><g fill="#000000" fill-opacity="1"><g transform="translate(212.72103, 33.64522)"><g><path d="M 2.359375 0 L 7.078125 0 L 7.078125 -6.210938 L 9.625 -6.210938 L 13.226562 0 L 18.722656 0 L 14.003906 -7.792969 C 14.90625 -8.570312 15.585938 -9.65625 16.117188 -11.117188 L 18.007812 -16.300781 L 12.917969 -16.300781 L 11.769531 -12.761719 C 11.148438 -10.929688 10.277344 -10.433594 8.289062 -10.433594 L 7.078125 -10.433594 L 7.078125 -16.300781 L 2.359375 -16.300781 Z M 2.359375 0 "/></g></g></g></g></g></g><g mask="url(#2b0aeea8e1)"><g transform="matrix(1, 0, 0, 1, 60, 78)"><g clip-path="url(#44d161bd92)"><g fill="#000000" fill-opacity="1"><g transform="translate(1.178661, 33.883999)"><g><path d="M 2.609375 0 L 7.546875 0 L 7.546875 -6.054688 L 11.117188 -6.054688 C 16.363281 -6.054688 19.75 -9.128906 19.75 -13.878906 C 19.75 -18.660156 16.363281 -21.734375 11.117188 -21.734375 L 2.609375 -21.734375 Z M 7.515625 -10.308594 L 7.515625 -17.417969 L 10.710938 -17.417969 C 13.289062 -17.417969 14.71875 -16.117188 14.71875 -13.847656 C 14.71875 -11.582031 13.289062 -10.308594 10.710938 -10.308594 Z M 7.515625 -10.308594 "/></g></g></g><g fill="#000000" fill-opacity="1"><g transform="translate(21.82158, 33.883999)"><g><path d="M 10.371094 0.433594 C 15.773438 0.433594 19.5 -3.074219 19.5 -8.167969 C 19.5 -13.226562 15.773438 -16.738281 10.371094 -16.738281 C 4.9375 -16.738281 1.210938 -13.226562 1.210938 -8.167969 C 1.210938 -3.074219 4.9375 0.433594 10.371094 0.433594 Z M 5.867188 -8.167969 C 5.867188 -10.835938 7.730469 -12.699219 10.371094 -12.699219 C 13.011719 -12.699219 14.84375 -10.835938 14.84375 -8.167969 C 14.84375 -5.496094 13.011719 -3.632812 10.371094 -3.632812 C 7.730469 -3.632812 5.867188 -5.496094 5.867188 -8.167969 Z M 5.867188 -8.167969 "/></g></g></g><g fill="#000000" fill-opacity="1"><g transform="translate(42.526589, 33.883999)"><g><path d="M 2.359375 0 L 7.078125 0 L 7.078125 -7.203125 C 7.078125 -10.710938 8.726562 -12.015625 11.425781 -12.015625 L 13.226562 -12.015625 L 13.226562 -16.300781 L 11.457031 -16.300781 C 9.066406 -16.300781 7.546875 -15.648438 6.488281 -14.128906 L 5.867188 -16.300781 L 2.359375 -16.300781 Z M 2.359375 0 "/></g></g></g><g fill="#000000" fill-opacity="1"><g transform="translate(56.805906, 33.883999)"><g><path d="M 10.214844 0 L 13.195312 0 L 13.195312 -4.097656 L 11.242188 -4.097656 C 9.378906 -4.097656 8.507812 -5 8.507812 -6.894531 L 8.507812 -12.453125 L 12.980469 -12.453125 L 12.980469 -16.300781 L 8.507812 -16.300781 L 8.507812 -20.523438 L 4.84375 -20.523438 L 4.566406 -18.414062 C 4.316406 -16.738281 3.851562 -16.300781 2.082031 -16.300781 L 0.621094 -16.300781 L 0.621094 -12.453125 L 3.789062 -12.453125 L 3.789062 -6.179688 C 3.789062 -2.203125 6.085938 0 10.214844 0 Z M 10.214844 0 "/></g></g></g><g fill="#000000" fill-opacity="1"><g transform="translate(71.302516, 33.883999)"><g><path d="M 8.847656 0.433594 C 10.992188 0.433594 12.917969 -0.308594 14.222656 -1.832031 L 14.71875 0 L 18.226562 0 L 18.226562 -16.300781 L 13.507812 -16.300781 L 13.507812 -7.792969 C 13.507812 -5.214844 12.109375 -3.632812 9.96875 -3.632812 C 7.980469 -3.632812 6.769531 -5.03125 6.769531 -7.421875 L 6.769531 -16.300781 L 2.050781 -16.300781 L 2.050781 -6.957031 C 2.050781 -2.421875 4.625 0.433594 8.847656 0.433594 Z M 8.847656 0.433594 "/></g></g></g><g fill="#000000" fill-opacity="1"><g transform="translate(91.883355, 33.883999)"><g><path d="M 10.308594 6.894531 C 15.523438 6.894531 18.847656 3.972656 18.847656 -0.902344 L 18.847656 -16.300781 L 15.339844 -16.300781 L 14.84375 -14.5 C 13.414062 -15.929688 11.425781 -16.738281 9.097656 -16.738281 C 4.503906 -16.738281 1.210938 -13.351562 1.210938 -8.601562 C 1.210938 -3.820312 4.503906 -0.433594 9.097656 -0.433594 C 11.054688 -0.433594 12.792969 -1.023438 14.128906 -2.050781 L 14.128906 -0.902344 C 14.128906 1.738281 12.792969 3.074219 10.214844 3.074219 C 8.257812 3.074219 6.957031 2.265625 6.613281 0.839844 L 2.019531 0.839844 C 2.421875 4.59375 5.589844 6.894531 10.308594 6.894531 Z M 5.867188 -8.601562 C 5.867188 -11.085938 7.609375 -12.824219 10.089844 -12.824219 C 12.574219 -12.824219 14.34375 -11.085938 14.34375 -8.601562 C 14.34375 -6.085938 12.574219 -4.347656 10.089844 -4.347656 C 7.609375 -4.347656 5.867188 -6.085938 5.867188 -8.601562 Z M 5.867188 -8.601562 "/></g></g></g><g fill="#000000" fill-opacity="1"><g transform="translate(113.116073, 33.883999)"><g><path d="M 8.847656 0.433594 C 10.992188 0.433594 12.917969 -0.308594 14.222656 -1.832031 L 14.71875 0 L 18.226562 0 L 18.226562 -16.300781 L 13.507812 -16.300781 L 13.507812 -7.792969 C 13.507812 -5.214844 12.109375 -3.632812 9.96875 -3.632812 C 7.980469 -3.632812 6.769531 -5.03125 6.769531 -7.421875 L 6.769531 -16.300781 L 2.050781 -16.300781 L 2.050781 -6.957031 C 2.050781 -2.421875 4.625 0.433594 8.847656 0.433594 Z M 8.847656 0.433594 "/></g></g></g><g fill="#000000" fill-opacity="1"><g transform="translate(133.696913, 33.883999)"><g><path d="M 10.058594 0.433594 C 14.066406 0.433594 17.234375 -1.613281 18.660156 -5.0625 L 13.878906 -5.0625 C 13.101562 -3.972656 11.707031 -3.351562 10.152344 -3.351562 C 8.011719 -3.351562 6.335938 -4.566406 5.898438 -6.800781 L 18.972656 -6.800781 C 19.25 -12.761719 15.710938 -16.738281 10.121094 -16.738281 C 4.84375 -16.738281 1.210938 -13.226562 1.210938 -8.167969 C 1.210938 -3.074219 4.8125 0.433594 10.058594 0.433594 Z M 4.441406 -18.597656 L 8.382812 -18.597656 L 10.121094 -20.867188 L 11.863281 -18.597656 L 15.773438 -18.597656 L 11.890625 -23.566406 L 8.320312 -23.566406 Z M 5.929688 -9.78125 C 6.457031 -11.769531 8.074219 -12.980469 10.152344 -12.980469 C 12.328125 -12.980469 13.878906 -11.769531 14.40625 -9.78125 Z M 5.929688 -9.78125 "/></g></g></g><g fill="#000000" fill-opacity="1"><g transform="translate(153.843168, 33.883999)"><g><path d="M 8.632812 0.433594 C 13.042969 0.433594 15.710938 -1.492188 15.710938 -4.59375 C 15.710938 -7.265625 13.722656 -8.972656 9.6875 -9.78125 C 6.894531 -10.339844 6.023438 -10.804688 6.023438 -11.800781 C 6.023438 -12.761719 6.894531 -13.320312 8.289062 -13.320312 C 9.875 -13.320312 10.835938 -12.605469 10.929688 -11.363281 L 15.433594 -11.363281 C 15.214844 -14.8125 12.667969 -16.738281 8.320312 -16.738281 C 3.945312 -16.738281 1.460938 -14.964844 1.460938 -11.800781 C 1.460938 -9.097656 3.324219 -7.484375 7.484375 -6.738281 C 10 -6.304688 11.054688 -5.652344 11.054688 -4.625 C 11.054688 -3.664062 10.183594 -3.074219 8.695312 -3.074219 C 6.957031 -3.074219 5.898438 -3.914062 5.867188 -5.246094 L 1.242188 -5.246094 C 1.242188 -1.832031 4.160156 0.433594 8.632812 0.433594 Z M 8.632812 0.433594 "/></g></g></g></g></g></g><g mask="url(#dae213b23a)"><g transform="matrix(1, 0, 0, 1, 60, 36)"><g clip-path="url(#6d74ce88e9)"><g fill="#000000" fill-opacity="1"><g transform="translate(0.766308, 34.231434)"><g><path d="M 2.609375 0 L 7.546875 0 L 7.546875 -21.734375 L 2.609375 -21.734375 Z M 2.609375 0 "/></g></g></g><g fill="#000000" fill-opacity="1"><g transform="translate(10.90997, 34.231434)"><g><path d="M 10.214844 0 L 13.195312 0 L 13.195312 -4.097656 L 11.242188 -4.097656 C 9.378906 -4.097656 8.507812 -5 8.507812 -6.894531 L 8.507812 -12.453125 L 12.980469 -12.453125 L 12.980469 -16.300781 L 8.507812 -16.300781 L 8.507812 -20.523438 L 4.84375 -20.523438 L 4.566406 -18.414062 C 4.316406 -16.738281 3.851562 -16.300781 2.082031 -16.300781 L 0.621094 -16.300781 L 0.621094 -12.453125 L 3.789062 -12.453125 L 3.789062 -6.179688 C 3.789062 -2.203125 6.085938 0 10.214844 0 Z M 10.214844 0 "/></g></g></g><g fill="#000000" fill-opacity="1"><g transform="translate(25.40658, 34.231434)"><g><path d="M 7.792969 0.308594 C 10.214844 0.308594 12.203125 -0.464844 13.601562 -1.894531 L 14.128906 0 L 17.636719 0 L 17.636719 -9.8125 C 17.636719 -14.128906 14.71875 -16.738281 9.84375 -16.738281 C 5.683594 -16.738281 2.949219 -14.75 2.359375 -11.210938 L 6.894531 -11.210938 C 7.171875 -12.359375 8.351562 -13.132812 9.875 -13.132812 C 11.738281 -13.132812 13.011719 -12.078125 13.011719 -10.464844 L 13.011719 -9.71875 L 7.109375 -9.71875 C 3.726562 -9.71875 1.550781 -7.761719 1.550781 -4.75 C 1.550781 -1.613281 3.945312 0.308594 7.792969 0.308594 Z M 6.210938 -4.9375 C 6.210938 -6.054688 7.140625 -6.769531 8.570312 -6.769531 L 13.042969 -6.769531 C 12.949219 -4.566406 11.242188 -3.074219 8.878906 -3.074219 C 7.265625 -3.074219 6.210938 -3.820312 6.210938 -4.9375 Z M 6.210938 -4.9375 "/></g></g></g><g fill="#000000" fill-opacity="1"><g transform="translate(45.087205, 34.231434)"><g><path d="M 2.359375 0 L 7.078125 0 L 7.078125 -22.976562 L 2.359375 -22.976562 Z M 2.359375 0 "/></g></g></g><g fill="#000000" fill-opacity="1"><g transform="translate(54.523968, 34.231434)"><g><path d="M 2.359375 0 L 7.078125 0 L 7.078125 -16.300781 L 2.359375 -16.300781 Z M 1.675781 -21.582031 C 1.675781 -19.839844 2.917969 -18.628906 4.71875 -18.628906 C 6.519531 -18.628906 7.761719 -19.839844 7.761719 -21.582031 C 7.761719 -23.320312 6.519531 -24.53125 4.71875 -24.53125 C 2.917969 -24.53125 1.675781 -23.320312 1.675781 -21.582031 Z M 1.675781 -21.582031 "/></g></g></g><g fill="#000000" fill-opacity="1"><g transform="translate(63.96073, 34.231434)"><g><path d="M 7.792969 0.308594 C 10.214844 0.308594 12.203125 -0.464844 13.601562 -1.894531 L 14.128906 0 L 17.636719 0 L 17.636719 -9.8125 C 17.636719 -14.128906 14.71875 -16.738281 9.84375 -16.738281 C 5.683594 -16.738281 2.949219 -14.75 2.359375 -11.210938 L 6.894531 -11.210938 C 7.171875 -12.359375 8.351562 -13.132812 9.875 -13.132812 C 11.738281 -13.132812 13.011719 -12.078125 13.011719 -10.464844 L 13.011719 -9.71875 L 7.109375 -9.71875 C 3.726562 -9.71875 1.550781 -7.761719 1.550781 -4.75 C 1.550781 -1.613281 3.945312 0.308594 7.792969 0.308594 Z M 6.210938 -4.9375 C 6.210938 -6.054688 7.140625 -6.769531 8.570312 -6.769531 L 13.042969 -6.769531 C 12.949219 -4.566406 11.242188 -3.074219 8.878906 -3.074219 C 7.265625 -3.074219 6.210938 -3.820312 6.210938 -4.9375 Z M 6.210938 -4.9375 "/></g></g></g><g fill="#000000" fill-opacity="1"><g transform="translate(83.641355, 34.231434)"><g><path d="M 2.359375 0 L 7.078125 0 L 7.078125 -8.539062 C 7.078125 -11.117188 8.507812 -12.699219 10.679688 -12.699219 C 12.699219 -12.699219 13.910156 -11.269531 13.910156 -8.878906 L 13.910156 0 L 18.628906 0 L 18.628906 -9.378906 C 18.628906 -13.878906 16.054688 -16.738281 11.800781 -16.738281 C 9.625 -16.738281 7.667969 -15.992188 6.367188 -14.46875 L 5.867188 -16.300781 L 2.359375 -16.300781 Z M 2.359375 0 "/></g></g></g><g fill="#000000" fill-opacity="1"><g transform="translate(104.315319, 34.231434)"><g><path d="M 10.371094 0.433594 C 15.773438 0.433594 19.5 -3.074219 19.5 -8.167969 C 19.5 -13.226562 15.773438 -16.738281 10.371094 -16.738281 C 4.9375 -16.738281 1.210938 -13.226562 1.210938 -8.167969 C 1.210938 -3.074219 4.9375 0.433594 10.371094 0.433594 Z M 5.867188 -8.167969 C 5.867188 -10.835938 7.730469 -12.699219 10.371094 -12.699219 C 13.011719 -12.699219 14.84375 -10.835938 14.84375 -8.167969 C 14.84375 -5.496094 13.011719 -3.632812 10.371094 -3.632812 C 7.730469 -3.632812 5.867188 -5.496094 5.867188 -8.167969 Z M 5.867188 -8.167969 "/></g></g></g></g></g></g><g mask="url(#ba1fad9151)"><g transform="matrix(1, 0, 0, 1, 57, 0)"><g clip-path="url(#820596ac27)"><g fill="#000000" fill-opacity="1"><g transform="translate(0.131752, 28.578865)"><g><path d="M 7.824219 0 L 12.761719 0 L 12.761719 -17.109375 L 19.65625 -17.109375 L 19.65625 -21.734375 L 0.929688 -21.734375 L 0.929688 -17.109375 L 7.824219 -17.109375 Z M 7.824219 0 "/></g></g></g><g fill="#000000" fill-opacity="1"><g transform="translate(20.712592, 28.578865)"><g><path d="M 8.847656 0.433594 C 10.992188 0.433594 12.917969 -0.308594 14.222656 -1.832031 L 14.71875 0 L 18.226562 0 L 18.226562 -16.300781 L 13.507812 -16.300781 L 13.507812 -7.792969 C 13.507812 -5.214844 12.109375 -3.632812 9.96875 -3.632812 C 7.980469 -3.632812 6.769531 -5.03125 6.769531 -7.421875 L 6.769531 -16.300781 L 2.050781 -16.300781 L 2.050781 -6.957031 C 2.050781 -2.421875 4.625 0.433594 8.847656 0.433594 Z M 4.316406 -21.144531 C 4.316406 -19.65625 5.339844 -18.660156 6.800781 -18.660156 C 8.257812 -18.660156 9.285156 -19.65625 9.285156 -21.144531 C 9.285156 -22.605469 8.257812 -23.597656 6.800781 -23.597656 C 5.339844 -23.597656 4.316406 -22.605469 4.316406 -21.144531 Z M 11.023438 -21.144531 C 11.023438 -19.65625 12.046875 -18.660156 13.507812 -18.660156 C 14.964844 -18.660156 15.992188 -19.65625 15.992188 -21.144531 C 15.992188 -22.605469 14.964844 -23.597656 13.507812 -23.597656 C 12.046875 -23.597656 11.023438 -22.605469 11.023438 -21.144531 Z M 11.023438 -21.144531 "/></g></g></g><g fill="#000000" fill-opacity="1"><g transform="translate(41.293432, 28.578865)"><g><path d="M 2.359375 0 L 7.078125 0 L 7.078125 -7.203125 C 7.078125 -10.710938 8.726562 -12.015625 11.425781 -12.015625 L 13.226562 -12.015625 L 13.226562 -16.300781 L 11.457031 -16.300781 C 9.066406 -16.300781 7.546875 -15.648438 6.488281 -14.128906 L 5.867188 -16.300781 L 2.359375 -16.300781 Z M 2.359375 0 "/></g></g></g><g fill="#000000" fill-opacity="1"><g transform="translate(55.572749, 28.578865)"><g><path d="M 2.359375 0 L 7.078125 0 L 7.078125 -6.210938 L 9.625 -6.210938 L 13.226562 0 L 18.722656 0 L 14.035156 -7.792969 C 14.90625 -8.570312 15.585938 -9.65625 16.117188 -11.117188 L 18.007812 -16.300781 L 12.917969 -16.300781 L 11.769531 -12.761719 C 11.148438 -10.929688 10.277344 -10.433594 8.289062 -10.433594 L 7.078125 -10.433594 L 7.078125 -22.976562 L 2.359375 -22.976562 Z M 2.359375 0 "/></g></g></g><g fill="#000000" fill-opacity="1"><g transform="translate(75.098161, 28.578865)"><g><path d="M 7.761719 8.136719 L 10.277344 8.136719 C 12.730469 8.136719 14.097656 6.738281 14.097656 4.75 C 14.097656 3.011719 13.074219 1.738281 11.179688 1.429688 L 11.582031 0.339844 C 15.433594 -0.15625 18.257812 -2.734375 19.035156 -6.550781 L 14.4375 -6.550781 C 13.785156 -4.78125 12.171875 -3.632812 10.183594 -3.632812 C 7.636719 -3.632812 5.867188 -5.496094 5.867188 -8.167969 C 5.867188 -10.835938 7.636719 -12.699219 10.183594 -12.699219 C 12.046875 -12.699219 13.570312 -11.707031 14.34375 -10.058594 L 18.878906 -10.058594 C 18.132812 -14.097656 14.65625 -16.738281 10.121094 -16.738281 C 4.90625 -16.738281 1.210938 -13.164062 1.210938 -8.167969 C 1.210938 -3.507812 4.347656 -0.125 8.941406 0.371094 L 8.136719 2.824219 L 8.726562 3.570312 L 9.875 3.570312 C 10.621094 3.570312 11.054688 3.914062 11.054688 4.503906 C 11.054688 5.09375 10.621094 5.433594 9.875 5.433594 L 7.761719 5.433594 Z M 7.761719 8.136719 "/></g></g></g><g fill="#000000" fill-opacity="1"><g transform="translate(95.275451, 28.578865)"><g><path d="M 10.058594 0.433594 C 14.066406 0.433594 17.234375 -1.613281 18.660156 -5.0625 L 13.878906 -5.0625 C 13.101562 -3.972656 11.707031 -3.351562 10.152344 -3.351562 C 8.011719 -3.351562 6.335938 -4.566406 5.898438 -6.800781 L 18.972656 -6.800781 C 19.25 -12.761719 15.710938 -16.738281 10.121094 -16.738281 C 4.84375 -16.738281 1.210938 -13.226562 1.210938 -8.167969 C 1.210938 -3.074219 4.8125 0.433594 10.058594 0.433594 Z M 5.929688 -9.78125 C 6.457031 -11.769531 8.074219 -12.980469 10.152344 -12.980469 C 12.328125 -12.980469 13.878906 -11.769531 14.40625 -9.78125 Z M 5.929688 -9.78125 "/></g></g></g></g></g></g><g clip-path="url(#a6cea14274)"><g clip-path="url(#287e50423d)"><g clip-path="url(#adbccafd72)"><path fill="#f4f4f4" d="M 175.085938 253.628906 L 171.878906 250.679688 L 170.566406 252.105469 L 167.714844 249.480469 L 166.40625 250.90625 L 163.554688 248.28125 L 162.242188 249.707031 L 159.035156 246.757812 L 157.394531 248.539062 L 155.972656 247.226562 L 154.660156 248.652344 L 151.808594 246.027344 L 154.761719 242.824219 L 156.183594 244.132812 L 157.496094 242.707031 L 161.773438 246.644531 L 163.085938 245.21875 L 143.84375 227.511719 L 146.46875 224.660156 L 160.007812 237.121094 L 161.320312 235.695312 L 155.261719 230.121094 L 158.214844 226.914062 L 164.269531 232.488281 L 165.582031 231.0625 L 160.949219 226.800781 L 163.574219 223.949219 L 169.628906 229.523438 L 170.941406 228.101562 L 166.308594 223.835938 L 167.949219 222.054688 L 169.730469 223.695312 L 171.042969 222.269531 L 181.375 231.777344 L 180.0625 233.203125 L 184.339844 237.140625 L 182.699219 238.921875 L 185.90625 241.871094 Z M 175.085938 253.628906 " fill-opacity="1" fill-rule="nonzero"/></g></g></g><g clip-path="url(#eb219b774e)"><g clip-path="url(#dc0baa8fe5)"><g clip-path="url(#e28babdb96)"><path fill="#000000" d="M 175.199219 256.367188 L 170.566406 252.105469 L 169.253906 253.53125 L 166.40625 250.90625 L 165.09375 252.332031 L 162.242188 249.707031 L 160.601562 251.488281 L 157.394531 248.539062 L 156.085938 249.964844 L 154.660156 248.652344 L 153.347656 250.078125 L 149.070312 246.144531 L 153.335938 241.511719 L 154.761719 242.824219 L 156.070312 241.398438 L 142.53125 228.9375 L 143.84375 227.511719 L 142.417969 226.199219 L 145.042969 223.347656 L 146.46875 224.660156 L 147.78125 223.234375 L 153.835938 228.808594 L 156.789062 225.601562 L 158.214844 226.914062 L 162.148438 222.640625 L 163.574219 223.949219 L 166.523438 220.742188 L 167.949219 222.054688 L 169.261719 220.628906 L 171.042969 222.269531 L 172.355469 220.84375 L 182.6875 230.355469 L 181.375 231.777344 L 185.652344 235.714844 L 184.339844 237.140625 L 188.972656 241.402344 Z M 185.90625 241.871094 L 182.699219 238.921875 L 184.339844 237.140625 L 180.0625 233.203125 L 181.375 231.777344 L 171.042969 222.269531 L 169.730469 223.695312 L 167.949219 222.054688 L 166.308594 223.835938 L 170.941406 228.101562 L 169.628906 229.523438 L 163.574219 223.949219 L 160.949219 226.800781 L 165.582031 231.0625 L 164.269531 232.488281 L 158.214844 226.914062 L 155.261719 230.121094 L 161.320312 235.695312 L 160.007812 237.121094 L 146.46875 224.660156 L 143.84375 227.511719 L 163.085938 245.21875 L 161.773438 246.644531 L 157.496094 242.707031 L 156.183594 244.132812 L 154.761719 242.824219 L 151.808594 246.027344 L 154.660156 248.652344 L 155.972656 247.226562 L 157.394531 248.539062 L 159.035156 246.757812 L 162.242188 249.707031 L 163.554688 248.28125 L 166.40625 250.90625 L 167.714844 249.480469 L 170.566406 252.105469 L 171.878906 250.679688 L 175.085938 253.628906 Z M 185.90625 241.871094 " fill-opacity="1" fill-rule="nonzero"/></g></g></g></svg>