<svg xmlns="http://www.w3.org/2000/svg" xmlns:xlink="http://www.w3.org/1999/xlink" width="500" zoomAndPan="magnify" viewBox="0 0 375 374.999991" height="500" preserveAspectRatio="xMidYMid meet" version="1.0"><defs><filter x="0%" y="0%" width="100%" height="100%" id="1691adfdd2"><feColorMatrix values="0 0 0 0 1 0 0 0 0 1 0 0 0 0 1 0 0 0 1 0" color-interpolation-filters="sRGB"/></filter><g/><clipPath id="f46e548a75"><path d="M 44 125.066406 L 307 125.066406 L 307 174.015625 L 44 174.015625 Z M 44 125.066406 " clip-rule="nonzero"/></clipPath><clipPath id="0524d47636"><path d="M 282 125.066406 L 331 125.066406 L 331 174.015625 L 282 174.015625 Z M 282 125.066406 " clip-rule="nonzero"/></clipPath><mask id="f2677b7604"><g filter="url(#1691adfdd2)"><rect x="-37.5" width="450" fill="#000000" y="-37.499999" height="449.999989" fill-opacity="0.698"/></g></mask><clipPath id="783562c990"><rect x="0" width="86" y="0" height="37"/></clipPath><mask id="b6f8d1758b"><g filter="url(#1691adfdd2)"><rect x="-37.5" width="450" fill="#000000" y="-37.499999" height="449.999989" fill-opacity="0.298"/></g></mask><clipPath id="a34d38769e"><rect x="0" width="101" y="0" height="36"/></clipPath><mask id="3d69ef2e42"><g filter="url(#1691adfdd2)"><rect x="-37.5" width="450" fill="#000000" y="-37.499999" height="449.999989" fill-opacity="0.098"/></g></mask><clipPath id="f1275cec73"><rect x="0" width="89" y="0" height="36"/></clipPath><mask id="e1b373e832"><g filter="url(#1691adfdd2)"><rect x="-37.5" width="450" fill="#000000" y="-37.499999" height="449.999989" fill-opacity="0.698"/></g></mask><clipPath id="8fe59e1eea"><rect x="0" width="89" y="0" height="37"/></clipPath><mask id="abdc76220e"><g filter="url(#1691adfdd2)"><rect x="-37.5" width="450" fill="#000000" y="-37.499999" height="449.999989" fill-opacity="0.298"/></g></mask><clipPath id="0af2fa4997"><rect x="0" width="58" y="0" height="36"/></clipPath><mask id="6c734a2d0e"><g filter="url(#1691adfdd2)"><rect x="-37.5" width="450" fill="#000000" y="-37.499999" height="449.999989" fill-opacity="0.098"/></g></mask><clipPath id="6e6af46edb"><rect x="0" width="89" y="0" height="36"/></clipPath><clipPath id="e946ff9a90"><path d="M 294 163 L 329 163 L 329 213 L 294 213 Z M 294 163 " clip-rule="nonzero"/></clipPath><clipPath id="5e04c99b6e"><path d="M 301.445312 157.789062 L 337.5 170.558594 L 320.972656 217.21875 L 284.917969 204.445312 Z M 301.445312 157.789062 " clip-rule="nonzero"/></clipPath><clipPath id="660ff85097"><path d="M 301.445312 157.789062 L 337.5 170.558594 L 320.972656 217.21875 L 284.917969 204.445312 Z M 301.445312 157.789062 " clip-rule="nonzero"/></clipPath><clipPath id="f52b0a0986"><path d="M 301.445312 157.789062 L 337.5 170.558594 L 320.972656 217.21875 L 284.917969 204.445312 Z M 301.445312 157.789062 " clip-rule="nonzero"/></clipPath><clipPath id="85cd53cf35"><path d="M 292 161 L 331 161 L 331 216 L 292 216 Z M 292 161 " clip-rule="nonzero"/></clipPath><clipPath id="39187ee6f9"><path d="M 301.445312 157.789062 L 337.5 170.558594 L 320.972656 217.21875 L 284.917969 204.445312 Z M 301.445312 157.789062 " clip-rule="nonzero"/></clipPath><clipPath id="8657c18a95"><path d="M 301.445312 157.789062 L 337.5 170.558594 L 320.972656 217.21875 L 284.917969 204.445312 Z M 301.445312 157.789062 " clip-rule="nonzero"/></clipPath><clipPath id="03fc717cf1"><path d="M 301.445312 157.789062 L 337.5 170.558594 L 320.972656 217.21875 L 284.917969 204.445312 Z M 301.445312 157.789062 " clip-rule="nonzero"/></clipPath></defs><g clip-path="url(#f46e548a75)"><path fill="#00ffb3" d="M 295.648438 174.035156 L 55 174.035156 C 49.015625 174.035156 44.167969 169.160156 44.167969 163.144531 L 44.167969 135.960938 C 44.167969 129.945312 49.015625 125.066406 55 125.066406 L 295.648438 125.066406 C 301.632812 125.066406 306.484375 129.945312 306.484375 135.960938 L 306.484375 163.144531 C 306.484375 169.160156 301.632812 174.035156 295.648438 174.035156 Z M 295.648438 174.035156 " fill-opacity="1" fill-rule="nonzero"/></g><g clip-path="url(#0524d47636)"><path fill="#f4f4f4" d="M 320 174.035156 L 282.132812 174.035156 L 282.132812 125.066406 L 320 125.066406 C 325.984375 125.066406 330.832031 129.945312 330.832031 135.960938 L 330.832031 163.144531 C 330.832031 169.160156 325.984375 174.035156 320 174.035156 Z M 320 174.035156 " fill-opacity="1" fill-rule="nonzero"/></g><path fill="#00ffb3" d="M 306.46875 159.792969 C 306.242188 159.792969 306.015625 159.707031 305.839844 159.53125 L 293.550781 147.171875 C 293.203125 146.824219 293.203125 146.257812 293.550781 145.910156 C 293.898438 145.558594 294.460938 145.558594 294.808594 145.910156 L 306.46875 157.636719 L 318.132812 145.910156 C 318.480469 145.558594 319.042969 145.558594 319.386719 145.910156 C 319.734375 146.257812 319.734375 146.824219 319.386719 147.171875 L 307.097656 159.53125 C 306.925781 159.707031 306.695312 159.792969 306.46875 159.792969 Z M 306.46875 159.792969 " fill-opacity="1" fill-rule="nonzero"/><g fill="#000000" fill-opacity="1"><g transform="translate(55.794334, 161.029132)"><g><path d="M 17.320312 -5.929688 C 17.320312 -9.363281 15.585938 -10.976562 11.097656 -11.917969 L 10.128906 -12.125 L 10.128906 -16.996094 C 11.417969 -16.703125 12.183594 -15.910156 12.359375 -14.5 L 16.789062 -14.5 C 16.46875 -18.316406 13.914062 -20.402344 10.128906 -20.753906 L 10.128906 -23.191406 L 8.394531 -23.191406 L 8.394531 -20.8125 C 4.226562 -20.605469 1.554688 -18.289062 1.554688 -14.882812 C 1.554688 -11.039062 4.082031 -9.65625 7.398438 -8.980469 L 8.394531 -8.777344 L 8.394531 -3.492188 C 6.574219 -3.816406 5.839844 -5.136719 5.546875 -6.722656 L 1.117188 -6.722656 C 1.351562 -2.496094 4.082031 -0.03125 8.394531 0.234375 L 8.394531 2.640625 L 10.128906 2.640625 L 10.128906 0.234375 C 14.207031 -0.03125 17.320312 -2.144531 17.320312 -5.929688 Z M 8.042969 -12.5625 C 6.371094 -12.886719 5.957031 -13.796875 5.957031 -14.765625 C 5.957031 -15.617188 6.664062 -16.878906 8.394531 -17.085938 L 8.394531 -12.476562 Z M 10.128906 -3.492188 L 10.128906 -8.453125 C 12.035156 -8.074219 12.855469 -7.457031 12.855469 -5.988281 C 12.855469 -4.785156 11.859375 -3.757812 10.128906 -3.492188 Z M 10.128906 -3.492188 "/></g></g></g><g fill="#000000" fill-opacity="1"><g transform="translate(74.199405, 161.029132)"><g/></g></g><g fill="#000000" fill-opacity="1"><g transform="translate(82.036961, 161.029132)"><g><path d="M 18.464844 -7.953125 L 18.464844 -20.546875 L 13.972656 -20.546875 L 13.972656 -8.132812 C 13.972656 -5.078125 12.503906 -3.609375 10.011719 -3.609375 C 7.515625 -3.609375 6.019531 -5.078125 6.019531 -8.132812 L 6.019531 -20.546875 L 1.527344 -20.546875 L 1.527344 -7.953125 C 1.527344 -2.671875 4.960938 0.265625 10.011719 0.265625 C 15 0.265625 18.464844 -2.671875 18.464844 -7.953125 Z M 18.464844 -7.953125 "/></g></g></g><g fill="#000000" fill-opacity="1"><g transform="translate(102.02715, 161.029132)"><g><path d="M 11.476562 -11.917969 L 8.308594 -12.5625 C 6.574219 -12.886719 6.136719 -13.796875 6.136719 -14.765625 C 6.136719 -15.703125 7.015625 -17.113281 9.21875 -17.113281 C 11.332031 -17.113281 12.5625 -16.292969 12.796875 -14.5 L 17.40625 -14.5 C 17.054688 -18.699219 13.855469 -20.8125 9.21875 -20.8125 C 4.578125 -20.8125 1.554688 -18.433594 1.554688 -14.882812 C 1.554688 -11.039062 4.199219 -9.65625 7.632812 -8.980469 L 10.332031 -8.484375 C 12.417969 -8.101562 13.328125 -7.484375 13.328125 -5.988281 C 13.328125 -4.609375 11.917969 -3.433594 9.597656 -3.433594 C 7.015625 -3.433594 6.046875 -4.902344 5.722656 -6.722656 L 1.085938 -6.722656 C 1.351562 -2.230469 4.550781 0.265625 9.539062 0.265625 C 14.238281 0.265625 17.964844 -1.878906 17.964844 -5.929688 C 17.964844 -9.363281 16.144531 -10.976562 11.476562 -11.917969 Z M 11.476562 -11.917969 "/></g></g></g><g fill="#000000" fill-opacity="1"><g transform="translate(121.078014, 161.029132)"><g><path d="M 9.335938 -20.546875 L 1.527344 -20.546875 L 1.527344 0 L 9.335938 0 C 15.910156 0 19.257812 -3.667969 19.257812 -10.273438 C 19.257812 -16.878906 15.910156 -20.546875 9.335938 -20.546875 Z M 8.921875 -3.875 L 6.019531 -3.875 L 6.019531 -16.671875 L 8.921875 -16.671875 C 13.269531 -16.671875 14.765625 -14.792969 14.765625 -10.273438 C 14.765625 -5.753906 13.269531 -3.875 8.921875 -3.875 Z M 8.921875 -3.875 "/></g></g></g><g fill="#000000" fill-opacity="1"><g transform="translate(55.794334, 202.616922)"><g><path d="M 15.96875 -6.574219 C 15.234375 -4.550781 14.207031 -3.609375 11.976562 -3.609375 C 9.921875 -3.609375 8.484375 -4.695312 7.71875 -6.605469 L 11.300781 -6.605469 L 11.300781 -9.1875 L 7.132812 -9.1875 C 7.105469 -9.539062 7.105469 -9.890625 7.105469 -10.273438 L 7.105469 -10.597656 L 11.300781 -10.597656 L 11.300781 -13.179688 L 7.457031 -13.179688 C 8.101562 -15.558594 9.65625 -16.9375 11.976562 -16.9375 C 14.179688 -16.9375 15.175781 -16 15.9375 -14.003906 L 20.371094 -14.003906 C 19.871094 -18.582031 16.144531 -20.8125 11.886719 -20.8125 C 7.105469 -20.8125 3.609375 -18.140625 2.671875 -13.179688 L 1.027344 -13.179688 L 1.027344 -10.597656 L 2.40625 -10.597656 L 2.40625 -10.273438 C 2.40625 -9.890625 2.40625 -9.539062 2.4375 -9.1875 L 1.027344 -9.1875 L 1.027344 -6.605469 L 2.847656 -6.605469 C 3.992188 -2.144531 7.367188 0.265625 11.886719 0.265625 C 16.175781 0.265625 19.929688 -1.964844 20.429688 -6.574219 Z M 15.96875 -6.574219 "/></g></g></g><g fill="#000000" fill-opacity="1"><g transform="translate(77.105467, 202.616922)"><g/></g></g><g fill="#000000" fill-opacity="1"><g transform="translate(84.943023, 202.616922)"><g><path d="M 6.019531 -3.875 L 6.019531 -8.628906 L 14.472656 -8.628906 L 14.472656 -12.210938 L 6.019531 -12.210938 L 6.019531 -16.671875 L 15.9375 -16.671875 L 15.9375 -20.546875 L 1.527344 -20.546875 L 1.527344 0 L 16.234375 0 L 16.234375 -3.875 Z M 6.019531 -3.875 "/></g></g></g><g fill="#000000" fill-opacity="1"><g transform="translate(102.056506, 202.616922)"><g><path d="M 18.464844 -7.953125 L 18.464844 -20.546875 L 13.972656 -20.546875 L 13.972656 -8.132812 C 13.972656 -5.078125 12.503906 -3.609375 10.011719 -3.609375 C 7.515625 -3.609375 6.019531 -5.078125 6.019531 -8.132812 L 6.019531 -20.546875 L 1.527344 -20.546875 L 1.527344 -7.953125 C 1.527344 -2.671875 4.960938 0.265625 10.011719 0.265625 C 15 0.265625 18.464844 -2.671875 18.464844 -7.953125 Z M 18.464844 -7.953125 "/></g></g></g><g fill="#000000" fill-opacity="1"><g transform="translate(122.046695, 202.616922)"><g><path d="M 18.257812 -3.433594 L 18.257812 -4.960938 C 18.257812 -7.046875 17.464844 -8.425781 15.207031 -9.480469 C 16.671875 -10.390625 18.054688 -11.769531 18.054688 -14.355469 C 18.054688 -17.847656 15.761719 -20.546875 10.390625 -20.546875 L 1.527344 -20.546875 L 1.527344 0 L 6.019531 0 L 6.019531 -7.457031 L 10.917969 -7.457031 C 12.679688 -7.457031 13.765625 -6.429688 13.765625 -4.8125 L 13.765625 -3.433594 C 13.765625 -1.730469 13.882812 -0.878906 14.355469 0 L 18.84375 0 C 18.347656 -0.878906 18.257812 -1.730469 18.257812 -3.433594 Z M 10.214844 -10.976562 L 6.019531 -10.976562 L 6.019531 -16.671875 L 10.304688 -16.671875 C 12.300781 -16.671875 13.414062 -15.792969 13.414062 -13.941406 C 13.414062 -11.976562 12.59375 -10.976562 10.214844 -10.976562 Z M 10.214844 -10.976562 "/></g></g></g><g fill="#000000" fill-opacity="1"><g transform="translate(55.794334, 244.306139)"><g><path d="M 16.320312 -12.152344 L 16.320312 -19.550781 L 23.660156 -19.550781 L 23.660156 -12.152344 Z M 5.929688 -19.550781 L 12.855469 -19.550781 L 12.855469 -12.152344 L 5.929688 -12.152344 Z M 27.183594 -23.015625 L 2.40625 -23.015625 L 2.40625 2.523438 L 5.929688 2.523438 L 5.929688 -8.6875 L 23.660156 -8.6875 L 23.660156 -1.585938 C 23.660156 -1.085938 23.453125 -0.910156 22.894531 -0.878906 C 22.308594 -0.878906 20.402344 -0.851562 18.726562 -0.96875 C 19.226562 -0.0585938 19.8125 1.554688 19.992188 2.523438 C 22.601562 2.523438 24.363281 2.464844 25.539062 1.878906 C 26.769531 1.320312 27.183594 0.351562 27.183594 -1.554688 Z M 27.183594 -23.015625 "/></g></g></g><g fill="#000000" fill-opacity="1"><g transform="translate(85.148502, 244.306139)"><g/></g></g><g fill="#000000" fill-opacity="1"><g transform="translate(92.986059, 244.306139)"><g><path d="M 2.847656 -5.3125 L 0.5 -2.523438 C 1.703125 -1.117188 3.757812 0.207031 6.632812 0.207031 C 10.625 0.207031 14.0625 -1.820312 14.0625 -7.046875 L 14.0625 -20.546875 L 9.597656 -20.546875 L 9.597656 -7.25 C 9.597656 -4.285156 8.101562 -3.667969 6.574219 -3.667969 C 4.636719 -3.667969 3.492188 -4.636719 2.847656 -5.3125 Z M 2.847656 -5.3125 "/></g></g></g><g fill="#000000" fill-opacity="1"><g transform="translate(108.426354, 244.306139)"><g><path d="M 9.773438 -20.546875 L 1.527344 -20.546875 L 1.527344 0 L 6.019531 0 L 6.019531 -6.28125 L 9.773438 -6.28125 C 15.234375 -6.28125 17.671875 -9.21875 17.671875 -13.414062 C 17.671875 -17.640625 15.234375 -20.546875 9.773438 -20.546875 Z M 9.714844 -10.15625 L 6.019531 -10.15625 L 6.019531 -16.671875 L 9.714844 -16.671875 C 11.828125 -16.671875 12.914062 -15.441406 12.914062 -13.414062 C 12.914062 -11.417969 11.828125 -10.15625 9.714844 -10.15625 Z M 9.714844 -10.15625 "/></g></g></g><g fill="#000000" fill-opacity="1"><g transform="translate(126.890138, 244.306139)"><g><path d="M 12.652344 -7.542969 L 20.050781 -20.546875 L 15 -20.546875 L 10.332031 -11.859375 L 5.695312 -20.546875 L 0.644531 -20.546875 L 8.042969 -7.542969 L 8.042969 0 L 12.652344 0 Z M 12.652344 -7.542969 "/></g></g></g><g fill="#000000" fill-opacity="1"><g transform="translate(147.583733, 244.306139)"><g/></g></g><g mask="url(#f2677b7604)"><g transform="matrix(1, 0, 0, 1, 55, 256)"><g clip-path="url(#783562c990)"><g fill="#000000" fill-opacity="1"><g transform="translate(0.794336, 29.995355)"><g><path d="M 15.792969 -14.089844 L 15.792969 -14.617188 C 15.792969 -18.550781 12.503906 -20.753906 8.835938 -20.753906 C 4.753906 -20.753906 1.644531 -18.347656 1.644531 -14.617188 C 1.644531 -12.945312 2.230469 -11.800781 2.816406 -10.773438 L 1.320312 -10.773438 L 1.320312 -8.453125 L 3.992188 -8.453125 C 4.140625 -8.042969 4.199219 -7.574219 4.199219 -7.074219 C 4.199219 -5.285156 3.140625 -3.816406 1.351562 -2.261719 L 3.40625 0.292969 C 7.808594 -1.878906 10.421875 1.234375 15.617188 0 L 15.617188 -3.667969 C 11.125 -2.4375 8.921875 -4.753906 5.402344 -3.375 C 7.515625 -4.929688 8.277344 -5.898438 8.277344 -8.101562 C 8.277344 -8.21875 8.277344 -8.335938 8.25 -8.453125 L 10.597656 -8.453125 L 10.597656 -10.773438 L 7.28125 -10.773438 C 6.605469 -11.886719 5.8125 -13.003906 5.8125 -14.414062 C 5.8125 -15.644531 6.488281 -17.085938 8.835938 -17.085938 C 11.242188 -17.085938 11.742188 -15.5 11.742188 -14.617188 L 11.742188 -14.089844 Z M 15.792969 -14.089844 "/></g></g></g><g fill="#000000" fill-opacity="1"><g transform="translate(17.907819, 29.995355)"><g/></g></g><g fill="#000000" fill-opacity="1"><g transform="translate(25.745375, 29.995355)"><g><path d="M 19.667969 -11.273438 L 11.332031 -11.273438 L 11.332031 -7.777344 L 15.585938 -7.777344 C 15.292969 -4.726562 13.679688 -3.609375 10.832031 -3.609375 C 7.484375 -3.609375 5.78125 -6.253906 5.78125 -10.273438 C 5.78125 -14.382812 7.542969 -16.9375 10.65625 -16.9375 C 12.679688 -16.9375 13.765625 -16.085938 14.558594 -14.441406 L 18.992188 -14.441406 C 18.289062 -18.667969 14.648438 -20.8125 10.566406 -20.8125 C 4.988281 -20.8125 1.085938 -17.085938 1.085938 -10.273438 C 1.085938 -3.492188 4.929688 0.265625 10.832031 0.265625 C 17.085938 0.265625 19.667969 -3.257812 19.667969 -9.890625 Z M 19.667969 -11.273438 "/></g></g></g><g fill="#000000" fill-opacity="1"><g transform="translate(46.64555, 29.995355)"><g><path d="M 14.324219 -11.300781 C 15.675781 -11.917969 16.878906 -13.328125 16.878906 -15.234375 C 16.878906 -18.40625 14.617188 -20.546875 10.011719 -20.546875 L 1.527344 -20.546875 L 1.527344 0 L 10.332031 0 C 15.703125 0 18.230469 -2.320312 18.230469 -6.105469 C 18.230469 -8.425781 16.730469 -10.566406 14.324219 -11.300781 Z M 6.019531 -16.847656 L 10.070312 -16.847656 C 11.125 -16.847656 12.183594 -16.261719 12.183594 -14.792969 C 12.183594 -13.589844 11.417969 -12.535156 9.949219 -12.535156 L 6.019531 -12.535156 Z M 10.1875 -3.699219 L 6.019531 -3.699219 L 6.019531 -9.128906 L 10.332031 -9.128906 C 12.769531 -9.128906 13.414062 -7.574219 13.414062 -6.3125 C 13.414062 -4.929688 12.5625 -3.699219 10.1875 -3.699219 Z M 10.1875 -3.699219 "/></g></g></g><g fill="#000000" fill-opacity="1"><g transform="translate(66.107373, 29.995355)"><g><path d="M 9.773438 -20.546875 L 1.527344 -20.546875 L 1.527344 0 L 6.019531 0 L 6.019531 -6.28125 L 9.773438 -6.28125 C 15.234375 -6.28125 17.671875 -9.21875 17.671875 -13.414062 C 17.671875 -17.640625 15.234375 -20.546875 9.773438 -20.546875 Z M 9.714844 -10.15625 L 6.019531 -10.15625 L 6.019531 -16.671875 L 9.714844 -16.671875 C 11.828125 -16.671875 12.914062 -15.441406 12.914062 -13.414062 C 12.914062 -11.417969 11.828125 -10.15625 9.714844 -10.15625 Z M 9.714844 -10.15625 "/></g></g></g></g></g></g><g mask="url(#b6f8d1758b)"><g transform="matrix(1, 0, 0, 1, 55, 298)"><g clip-path="url(#a34d38769e)"><g fill="#000000" fill-opacity="1"><g transform="translate(0.794336, 29.684512)"><g><path d="M 25.097656 -22.808594 L 4.257812 -22.808594 L 4.257812 -19.433594 L 25.097656 -19.433594 Z M 21.195312 -1.203125 C 20.226562 -1.203125 20.050781 -1.378906 20.050781 -2.496094 L 20.050781 -11.476562 L 27.796875 -11.476562 L 27.796875 -14.882812 L 1.613281 -14.882812 L 1.613281 -11.476562 L 8.25 -11.476562 C 7.894531 -6.605469 7.074219 -2.640625 0.96875 -0.351562 C 1.761719 0.324219 2.730469 1.613281 3.140625 2.496094 C 10.15625 -0.351562 11.507812 -5.371094 12.035156 -11.476562 L 16.4375 -11.476562 L 16.4375 -2.496094 C 16.4375 0.9375 17.289062 2.054688 20.605469 2.054688 L 24.128906 2.054688 C 27.125 2.054688 28.003906 0.527344 28.355469 -4.726562 C 27.386719 -4.960938 25.890625 -5.578125 25.128906 -6.195312 C 24.980469 -1.964844 24.804688 -1.203125 23.835938 -1.203125 Z M 21.195312 -1.203125 "/></g></g></g><g fill="#000000" fill-opacity="1"><g transform="translate(30.148504, 29.684512)"><g/></g></g><g fill="#000000" fill-opacity="1"><g transform="translate(37.98606, 29.684512)"><g><path d="M 10.65625 -3.609375 C 7.515625 -3.609375 5.78125 -6.195312 5.78125 -10.273438 C 5.78125 -14.382812 7.515625 -16.9375 10.65625 -16.9375 C 12.855469 -16.9375 13.855469 -16 14.617188 -14.003906 L 19.050781 -14.003906 C 18.550781 -18.582031 14.824219 -20.8125 10.566406 -20.8125 C 4.929688 -20.8125 1.085938 -17.085938 1.085938 -10.273438 C 1.085938 -3.464844 4.929688 0.265625 10.566406 0.265625 C 14.851562 0.265625 18.609375 -1.964844 19.109375 -6.574219 L 14.648438 -6.574219 C 13.914062 -4.550781 12.886719 -3.609375 10.65625 -3.609375 Z M 10.65625 -3.609375 "/></g></g></g><g fill="#000000" fill-opacity="1"><g transform="translate(57.976248, 29.684512)"><g><path d="M 18.875 -20.546875 L 14.382812 -20.546875 L 14.382812 -7.191406 L 14.296875 -7.191406 L 6.078125 -20.546875 L 1.527344 -20.546875 L 1.527344 0 L 6.019531 0 L 6.019531 -13.09375 L 6.105469 -13.09375 L 14.148438 0 L 18.875 0 Z M 18.875 -20.546875 "/></g></g></g><g fill="#000000" fill-opacity="1"><g transform="translate(78.377395, 29.684512)"><g><path d="M 12.652344 -7.542969 L 20.050781 -20.546875 L 15 -20.546875 L 10.332031 -11.859375 L 5.695312 -20.546875 L 0.644531 -20.546875 L 8.042969 -7.542969 L 8.042969 0 L 12.652344 0 Z M 12.652344 -7.542969 "/></g></g></g></g></g></g><g mask="url(#3d69ef2e42)"><g transform="matrix(1, 0, 0, 1, 55, 339)"><g clip-path="url(#f1275cec73)"><g fill="#000000" fill-opacity="1"><g transform="translate(0.794336, 30.373728)"><g><path d="M 17.320312 -5.929688 C 17.320312 -9.363281 15.585938 -10.976562 11.097656 -11.917969 L 10.128906 -12.125 L 10.128906 -16.996094 C 11.417969 -16.703125 12.183594 -15.910156 12.359375 -14.5 L 16.789062 -14.5 C 16.46875 -18.316406 13.914062 -20.402344 10.128906 -20.753906 L 10.128906 -23.191406 L 8.394531 -23.191406 L 8.394531 -20.8125 C 4.226562 -20.605469 1.554688 -18.289062 1.554688 -14.882812 C 1.554688 -11.039062 4.082031 -9.65625 7.398438 -8.980469 L 8.394531 -8.777344 L 8.394531 -3.492188 C 6.574219 -3.816406 5.839844 -5.136719 5.546875 -6.722656 L 1.117188 -6.722656 C 1.351562 -2.496094 4.082031 -0.03125 8.394531 0.234375 L 8.394531 2.640625 L 10.128906 2.640625 L 10.128906 0.234375 C 14.207031 -0.03125 17.320312 -2.144531 17.320312 -5.929688 Z M 8.042969 -12.5625 C 6.371094 -12.886719 5.957031 -13.796875 5.957031 -14.765625 C 5.957031 -15.617188 6.664062 -16.878906 8.394531 -17.085938 L 8.394531 -12.476562 Z M 10.128906 -3.492188 L 10.128906 -8.453125 C 12.035156 -8.074219 12.855469 -7.457031 12.855469 -5.988281 C 12.855469 -4.785156 11.859375 -3.757812 10.128906 -3.492188 Z M 10.128906 -3.492188 "/></g></g></g><g fill="#000000" fill-opacity="1"><g transform="translate(19.199406, 30.373728)"><g/></g></g><g fill="#000000" fill-opacity="1"><g transform="translate(27.036962, 30.373728)"><g><path d="M 15.734375 0 L 20.546875 0 L 12.621094 -20.546875 L 8.601562 -20.546875 L 0.644531 0 L 5.488281 0 L 6.808594 -3.84375 L 14.414062 -3.84375 Z M 7.925781 -7.132812 L 10.597656 -15 L 13.296875 -7.132812 Z M 7.925781 -7.132812 "/></g></g></g><g fill="#000000" fill-opacity="1"><g transform="translate(48.230668, 30.373728)"><g><path d="M 18.464844 -7.953125 L 18.464844 -20.546875 L 13.972656 -20.546875 L 13.972656 -8.132812 C 13.972656 -5.078125 12.503906 -3.609375 10.011719 -3.609375 C 7.515625 -3.609375 6.019531 -5.078125 6.019531 -8.132812 L 6.019531 -20.546875 L 1.527344 -20.546875 L 1.527344 -7.953125 C 1.527344 -2.671875 4.960938 0.265625 10.011719 0.265625 C 15 0.265625 18.464844 -2.671875 18.464844 -7.953125 Z M 18.464844 -7.953125 "/></g></g></g><g fill="#000000" fill-opacity="1"><g transform="translate(68.220857, 30.373728)"><g><path d="M 9.335938 -20.546875 L 1.527344 -20.546875 L 1.527344 0 L 9.335938 0 C 15.910156 0 19.257812 -3.667969 19.257812 -10.273438 C 19.257812 -16.878906 15.910156 -20.546875 9.335938 -20.546875 Z M 8.921875 -3.875 L 6.019531 -3.875 L 6.019531 -16.671875 L 8.921875 -16.671875 C 13.269531 -16.671875 14.765625 -14.792969 14.765625 -10.273438 C 14.765625 -5.753906 13.269531 -3.875 8.921875 -3.875 Z M 8.921875 -3.875 "/></g></g></g></g></g></g><g mask="url(#e1b373e832)"><g transform="matrix(1, 0, 0, 1, 55, 82)"><g clip-path="url(#8fe59e1eea)"><g fill="#000000" fill-opacity="1"><g transform="translate(0.794336, 30.243423)"><g><path d="M 17.320312 -5.929688 C 17.320312 -9.363281 15.585938 -10.976562 11.097656 -11.917969 L 10.128906 -12.125 L 10.128906 -16.996094 C 11.417969 -16.703125 12.183594 -15.910156 12.359375 -14.5 L 16.789062 -14.5 C 16.46875 -18.316406 13.914062 -20.402344 10.128906 -20.753906 L 10.128906 -23.191406 L 8.394531 -23.191406 L 8.394531 -20.8125 C 4.226562 -20.605469 1.554688 -18.289062 1.554688 -14.882812 C 1.554688 -11.039062 4.082031 -9.65625 7.398438 -8.980469 L 8.394531 -8.777344 L 8.394531 -3.492188 C 6.574219 -3.816406 5.839844 -5.136719 5.546875 -6.722656 L 1.117188 -6.722656 C 1.351562 -2.496094 4.082031 -0.03125 8.394531 0.234375 L 8.394531 2.640625 L 10.128906 2.640625 L 10.128906 0.234375 C 14.207031 -0.03125 17.320312 -2.144531 17.320312 -5.929688 Z M 8.042969 -12.5625 C 6.371094 -12.886719 5.957031 -13.796875 5.957031 -14.765625 C 5.957031 -15.617188 6.664062 -16.878906 8.394531 -17.085938 L 8.394531 -12.476562 Z M 10.128906 -3.492188 L 10.128906 -8.453125 C 12.035156 -8.074219 12.855469 -7.457031 12.855469 -5.988281 C 12.855469 -4.785156 11.859375 -3.757812 10.128906 -3.492188 Z M 10.128906 -3.492188 "/></g></g></g><g fill="#000000" fill-opacity="1"><g transform="translate(19.199406, 30.243423)"><g/></g></g><g fill="#000000" fill-opacity="1"><g transform="translate(27.036962, 30.243423)"><g><path d="M 10.65625 -3.609375 C 7.515625 -3.609375 5.78125 -6.195312 5.78125 -10.273438 C 5.78125 -14.382812 7.515625 -16.9375 10.65625 -16.9375 C 12.855469 -16.9375 13.855469 -16 14.617188 -14.003906 L 19.050781 -14.003906 C 18.550781 -18.582031 14.824219 -20.8125 10.566406 -20.8125 C 4.929688 -20.8125 1.085938 -17.085938 1.085938 -10.273438 C 1.085938 -3.464844 4.929688 0.265625 10.566406 0.265625 C 14.851562 0.265625 18.609375 -1.964844 19.109375 -6.574219 L 14.648438 -6.574219 C 13.914062 -4.550781 12.886719 -3.609375 10.65625 -3.609375 Z M 10.65625 -3.609375 "/></g></g></g><g fill="#000000" fill-opacity="1"><g transform="translate(47.027151, 30.243423)"><g><path d="M 15.734375 0 L 20.546875 0 L 12.621094 -20.546875 L 8.601562 -20.546875 L 0.644531 0 L 5.488281 0 L 6.808594 -3.84375 L 14.414062 -3.84375 Z M 7.925781 -7.132812 L 10.597656 -15 L 13.296875 -7.132812 Z M 7.925781 -7.132812 "/></g></g></g><g fill="#000000" fill-opacity="1"><g transform="translate(68.220857, 30.243423)"><g><path d="M 9.335938 -20.546875 L 1.527344 -20.546875 L 1.527344 0 L 9.335938 0 C 15.910156 0 19.257812 -3.667969 19.257812 -10.273438 C 19.257812 -16.878906 15.910156 -20.546875 9.335938 -20.546875 Z M 8.921875 -3.875 L 6.019531 -3.875 L 6.019531 -16.671875 L 8.921875 -16.671875 C 13.269531 -16.671875 14.765625 -14.792969 14.765625 -10.273438 C 14.765625 -5.753906 13.269531 -3.875 8.921875 -3.875 Z M 8.921875 -3.875 "/></g></g></g></g></g></g><g mask="url(#abdc76220e)"><g transform="matrix(1, 0, 0, 1, 55, 41)"><g clip-path="url(#0af2fa4997)"><g fill="#000000" fill-opacity="1"><g transform="translate(0.794336, 29.55424)"><g><path d="M 10.65625 -3.609375 C 7.515625 -3.609375 5.78125 -6.195312 5.78125 -10.273438 C 5.78125 -14.382812 7.515625 -16.9375 10.65625 -16.9375 C 12.855469 -16.9375 13.855469 -16 14.617188 -14.003906 L 19.050781 -14.003906 C 18.550781 -18.582031 14.824219 -20.8125 10.566406 -20.8125 C 4.929688 -20.8125 1.085938 -17.085938 1.085938 -10.273438 C 1.085938 -3.464844 4.929688 0.265625 10.566406 0.265625 C 14.851562 0.265625 18.609375 -1.964844 19.109375 -6.574219 L 14.648438 -6.574219 C 13.914062 -4.550781 12.886719 -3.609375 10.65625 -3.609375 Z M 10.65625 -3.609375 "/></g></g></g><g fill="#000000" fill-opacity="1"><g transform="translate(20.784524, 29.55424)"><g><path d="M 13.882812 -20.546875 L 13.882812 -12.09375 L 6.019531 -12.09375 L 6.019531 -20.546875 L 1.527344 -20.546875 L 1.527344 0 L 6.019531 0 L 6.019531 -8.453125 L 13.882812 -8.453125 L 13.882812 0 L 18.375 0 L 18.375 -20.546875 Z M 13.882812 -20.546875 "/></g></g></g><g fill="#000000" fill-opacity="1"><g transform="translate(40.686661, 29.55424)"><g><path d="M 15.117188 -16.671875 L 15.117188 -20.546875 L 1.527344 -20.546875 L 1.527344 0 L 6.019531 0 L 6.019531 -8.335938 L 13.53125 -8.335938 L 13.53125 -11.945312 L 6.019531 -11.945312 L 6.019531 -16.671875 Z M 15.117188 -16.671875 "/></g></g></g></g></g></g><g mask="url(#6c734a2d0e)"><g transform="matrix(1, 0, 0, 1, 55, 0)"><g clip-path="url(#6e6af46edb)"><g fill="#000000" fill-opacity="1"><g transform="translate(0.794336, 28.865023)"><g><path d="M 17.320312 -5.929688 C 17.320312 -9.363281 15.585938 -10.976562 11.097656 -11.917969 L 10.128906 -12.125 L 10.128906 -16.996094 C 11.417969 -16.703125 12.183594 -15.910156 12.359375 -14.5 L 16.789062 -14.5 C 16.46875 -18.316406 13.914062 -20.402344 10.128906 -20.753906 L 10.128906 -23.191406 L 8.394531 -23.191406 L 8.394531 -20.8125 C 4.226562 -20.605469 1.554688 -18.289062 1.554688 -14.882812 C 1.554688 -11.039062 4.082031 -9.65625 7.398438 -8.980469 L 8.394531 -8.777344 L 8.394531 -3.492188 C 6.574219 -3.816406 5.839844 -5.136719 5.546875 -6.722656 L 1.117188 -6.722656 C 1.351562 -2.496094 4.082031 -0.03125 8.394531 0.234375 L 8.394531 2.640625 L 10.128906 2.640625 L 10.128906 0.234375 C 14.207031 -0.03125 17.320312 -2.144531 17.320312 -5.929688 Z M 8.042969 -12.5625 C 6.371094 -12.886719 5.957031 -13.796875 5.957031 -14.765625 C 5.957031 -15.617188 6.664062 -16.878906 8.394531 -17.085938 L 8.394531 -12.476562 Z M 10.128906 -3.492188 L 10.128906 -8.453125 C 12.035156 -8.074219 12.855469 -7.457031 12.855469 -5.988281 C 12.855469 -4.785156 11.859375 -3.757812 10.128906 -3.492188 Z M 10.128906 -3.492188 "/></g></g></g><g fill="#000000" fill-opacity="1"><g transform="translate(19.199406, 28.865023)"><g/></g></g><g fill="#000000" fill-opacity="1"><g transform="translate(27.036962, 28.865023)"><g><path d="M 13.882812 -20.546875 L 13.882812 -12.09375 L 6.019531 -12.09375 L 6.019531 -20.546875 L 1.527344 -20.546875 L 1.527344 0 L 6.019531 0 L 6.019531 -8.453125 L 13.882812 -8.453125 L 13.882812 0 L 18.375 0 L 18.375 -20.546875 Z M 13.882812 -20.546875 "/></g></g></g><g fill="#000000" fill-opacity="1"><g transform="translate(46.939099, 28.865023)"><g><path d="M 11.417969 -11.300781 L 19.316406 -20.546875 L 14.179688 -20.546875 L 6.019531 -11.007812 L 6.019531 -20.546875 L 1.527344 -20.546875 L 1.527344 0 L 6.019531 0 L 6.019531 -4.960938 L 8.894531 -8.335938 L 8.894531 -8.101562 L 15.148438 0 L 20.109375 0 Z M 11.417969 -11.300781 "/></g></g></g><g fill="#000000" fill-opacity="1"><g transform="translate(67.633795, 28.865023)"><g><path d="M 9.335938 -20.546875 L 1.527344 -20.546875 L 1.527344 0 L 9.335938 0 C 15.910156 0 19.257812 -3.667969 19.257812 -10.273438 C 19.257812 -16.878906 15.910156 -20.546875 9.335938 -20.546875 Z M 8.921875 -3.875 L 6.019531 -3.875 L 6.019531 -16.671875 L 8.921875 -16.671875 C 13.269531 -16.671875 14.765625 -14.792969 14.765625 -10.273438 C 14.765625 -5.753906 13.269531 -3.875 8.921875 -3.875 Z M 8.921875 -3.875 "/></g></g></g></g></g></g><g clip-path="url(#e946ff9a90)"><g clip-path="url(#5e04c99b6e)"><g clip-path="url(#660ff85097)"><g clip-path="url(#f52b0a0986)"><path fill="#fefefe" d="M 298.3125 206.972656 L 299.929688 202.402344 L 297.898438 201.683594 L 299.339844 197.621094 L 297.308594 196.898438 L 298.746094 192.839844 L 296.714844 192.117188 L 298.335938 187.546875 L 295.796875 186.648438 L 296.515625 184.617188 L 294.484375 183.898438 L 295.921875 179.835938 L 300.492188 181.453125 L 299.773438 183.484375 L 301.804688 184.207031 L 299.644531 190.300781 L 301.675781 191.019531 L 311.390625 163.597656 L 315.453125 165.039062 L 308.617188 184.332031 L 310.648438 185.054688 L 313.707031 176.421875 L 318.277344 178.039062 L 315.21875 186.671875 L 317.25 187.390625 L 319.589844 180.789062 L 323.652344 182.230469 L 320.59375 190.863281 L 322.625 191.582031 L 324.964844 184.980469 L 327.503906 185.878906 L 326.605469 188.417969 L 328.636719 189.136719 L 323.417969 203.863281 L 321.386719 203.144531 L 319.226562 209.238281 L 316.6875 208.339844 L 315.070312 212.910156 Z M 298.3125 206.972656 " fill-opacity="1" fill-rule="nonzero"/></g></g></g></g><g clip-path="url(#85cd53cf35)"><g clip-path="url(#39187ee6f9)"><g clip-path="url(#8657c18a95)"><g clip-path="url(#03fc717cf1)"><path fill="#000000" d="M 295.5625 208.285156 L 297.898438 201.683594 L 295.867188 200.960938 L 297.308594 196.898438 L 295.277344 196.179688 L 296.714844 192.117188 L 294.175781 191.21875 L 295.796875 186.648438 L 293.765625 185.929688 L 294.484375 183.898438 L 292.453125 183.179688 L 294.609375 177.085938 L 301.210938 179.425781 L 300.492188 181.453125 L 302.523438 182.175781 L 309.359375 162.878906 L 311.390625 163.597656 L 312.109375 161.566406 L 316.171875 163.007812 L 315.453125 165.039062 L 317.484375 165.757812 L 314.425781 174.390625 L 318.996094 176.007812 L 318.277344 178.039062 L 324.371094 180.199219 L 323.652344 182.230469 L 328.222656 183.847656 L 327.503906 185.878906 L 329.535156 186.597656 L 328.636719 189.136719 L 330.667969 189.859375 L 325.449219 204.582031 L 323.417969 203.863281 L 321.257812 209.957031 L 319.226562 209.238281 L 316.890625 215.839844 Z M 315.070312 212.910156 L 316.6875 208.339844 L 319.226562 209.238281 L 321.386719 203.144531 L 323.417969 203.863281 L 328.636719 189.136719 L 326.605469 188.417969 L 327.503906 185.878906 L 324.964844 184.980469 L 322.625 191.582031 L 320.59375 190.863281 L 323.652344 182.230469 L 319.589844 180.789062 L 317.25 187.390625 L 315.21875 186.671875 L 318.277344 178.039062 L 313.707031 176.421875 L 310.648438 185.054688 L 308.617188 184.332031 L 315.453125 165.039062 L 311.390625 163.597656 L 301.675781 191.019531 L 299.644531 190.300781 L 301.804688 184.207031 L 299.773438 183.484375 L 300.492188 181.453125 L 295.921875 179.835938 L 294.484375 183.898438 L 296.515625 184.617188 L 295.796875 186.648438 L 298.335938 187.546875 L 296.714844 192.117188 L 298.746094 192.839844 L 297.308594 196.898438 L 299.339844 197.621094 L 297.898438 201.683594 L 299.929688 202.402344 L 298.3125 206.972656 Z M 315.070312 212.910156 " fill-opacity="1" fill-rule="nonzero"/></g></g></g></g></svg>